<svg width="25" height="11" viewBox="0 0 25 11" fill="none" xmlns="http://www.w3.org/2000/svg">
<path fill-rule="evenodd" clip-rule="evenodd" d="M5.5146 0C4.58687 0 3.92012 0.385205 3.42995 0.940668V0.59595C3.42995 0.418635 3.28922 0.274834 3.11569 0.274834H0.81426C0.640731 0.274834 0.5 0.418635 0.5 0.59595V10.6789C0.5 10.8562 0.640731 11 0.81426 11H3.11569C3.28922 11 3.42995 10.8562 3.42995 10.6789V7.39683C3.92029 7.95221 4.58687 8.33742 5.5146 8.33742C8.19893 8.33742 8.50875 5.39328 8.50875 4.15468C8.50875 2.91616 8.19893 0 5.5146 0ZM4.39517 5.67879C4.07573 5.67879 3.77166 5.53986 3.48379 5.29123C3.44943 5.26158 3.42995 5.21681 3.42995 5.17086V3.10709C3.42995 3.06072 3.44976 3.01553 3.48461 2.98588C3.77257 2.74145 4.07614 2.61437 4.39517 2.61437C5.16911 2.61437 5.43224 3.15228 5.43224 4.13024C5.43224 5.1082 5.16911 5.67879 4.39517 5.67879Z" fill="#32992C"/>
<path d="M15.3094 0.00845553C15.2525 0.00366777 15.1947 0.000979897 15.137 0.000979897L15.1187 0.000694143C14.9482 -0.00279852 13.9547 -0.0231519 12.9753 0.856056V0.583322C12.9753 0.405923 12.8345 0.262207 12.661 0.262207H10.353C10.1794 0.262207 10.0388 0.405923 10.0388 0.583322V7.74908C10.0388 7.9264 10.1794 8.0702 10.353 8.0702H12.661C12.8345 8.0702 12.9753 7.9264 12.9753 7.74908V3.78549C12.9753 3.20248 13.6077 2.86271 14.181 2.86271C14.4927 2.86271 14.8811 2.98417 15.1725 3.09589C15.3784 3.17484 15.5981 3.02037 15.5981 2.7956V0.328731C15.5981 0.165863 15.4682 0.0218108 15.3094 0.00845553Z" fill="#32992C"/>
<path fill-rule="evenodd" clip-rule="evenodd" d="M16.1565 4.16871C16.1565 1.73955 17.9051 0 20.3283 0C22.7515 0 24.5 1.73955 24.5 4.16871C24.5 6.59786 22.7515 8.33742 20.3283 8.33742C17.9051 8.33742 16.1565 6.59786 16.1565 4.16871ZM20.3283 5.72313C20.6325 5.72313 21.0585 5.65686 21.3604 5.34104C21.6167 5.07292 21.7521 4.66756 21.7521 4.16871C21.7521 3.66986 21.6167 3.26449 21.3604 2.99638C21.1937 2.822 20.8795 2.61428 20.3283 2.61428C20.0241 2.61428 19.5981 2.68056 19.2962 2.99638C19.0399 3.26449 18.9045 3.66986 18.9045 4.16871C18.9045 4.66756 19.0399 5.07292 19.2962 5.34104C19.4628 5.51533 19.7771 5.72313 20.3283 5.72313Z" fill="#32992C"/>
</svg>
