<svg width="66" height="48" fill="none" xmlns="http://www.w3.org/2000/svg">
<g clip-path="url(#clip0_910_1341)">
<path d="M10.4975 25.7654C16.2399 25.7654 20.895 21.1102 20.895 15.3679C20.895 9.62546 16.2399 4.97034 10.4975 4.97034C4.7551 4.97034 0.0999756 9.62546 0.0999756 15.3679C0.0999756 21.1102 4.7551 25.7654 10.4975 25.7654Z" fill="#50B64A" stroke="#0B0C1F" stroke-width="0.5" stroke-linecap="round" stroke-linejoin="round"/>
<path d="M27.377 42.6921C26.9274 42.8034 26.5591 43.0775 26.3207 43.4344C26.1922 43.6271 26.0009 43.7698 25.7754 43.8198L15.2223 46.2051L15.0053 46.2536L14.6956 44.8818C14.7027 44.8804 14.7099 44.879 14.717 44.8775C15.6819 44.6591 16.2872 43.7013 16.0702 42.7364C15.8518 41.7714 14.8926 41.1662 13.929 41.3846C13.9205 41.386 13.9133 41.3874 13.9062 41.3889L13.8377 41.0862L13.6264 40.1498C13.6264 40.1498 13.6407 40.147 13.6493 40.1455C14.6128 39.9271 15.218 38.9693 15.0011 38.0044C14.7827 37.0394 13.8234 36.4342 12.8599 36.6512C12.8513 36.6526 12.8442 36.6554 12.837 36.6569L12.6543 35.8504L12.5573 35.4178C12.5573 35.4178 12.573 35.415 12.5801 35.4136C13.5436 35.1952 14.1503 34.2373 13.9319 33.2724C13.7135 32.3074 12.7543 31.7022 11.7907 31.9192C11.7836 31.922 11.775 31.9235 11.7693 31.9249L11.4881 30.6859C11.4881 30.6859 11.5038 30.683 11.5109 30.6816C11.9535 30.5817 12.3189 30.3276 12.5658 29.9864H12.5673C12.8585 29.5839 12.9812 29.0628 12.8627 28.5404C12.6443 27.5754 11.6865 26.9702 10.7216 27.1886C10.7144 27.19 10.7073 27.1915 10.7002 27.1929L10.4204 25.9539C10.4204 25.9539 10.4347 25.951 10.4418 25.9496C11.1712 25.784 11.6951 25.1973 11.8121 24.5036C11.8507 24.2795 11.8464 24.0439 11.7936 23.8084C11.5766 22.8435 10.6174 22.2382 9.65242 22.4566C9.64528 22.4581 9.63814 22.4595 9.631 22.4623L9.35122 21.2219C9.35836 21.2205 9.3655 21.219 9.37264 21.2176C10.2962 21.0078 10.8914 20.1213 10.7487 19.1992C10.743 19.1578 10.7344 19.1178 10.7259 19.0764C10.5075 18.1115 9.54821 17.5062 8.58469 17.7232C8.57612 17.7261 8.56898 17.7275 8.56185 17.7289L8.19214 16.0931L18.6539 13.7292C19.025 13.645 19.4161 13.6821 19.7573 13.8477C19.8144 13.8748 19.8715 13.9005 19.9315 13.9219C20.2298 14.029 20.561 14.0575 20.8935 13.989L21.9527 18.6753L23.1346 23.9112L24.3166 29.1456L25.4999 34.3815L26.6818 39.6174L27.377 42.6921Z" fill="#FAFAFA"/>
<path d="M11.8121 24.5035C11.8507 24.2794 11.8464 24.0439 11.7936 23.8084C11.5766 22.8434 10.6173 22.2382 9.65239 22.4566C9.64525 22.458 9.63811 22.4594 9.63098 22.4623L9.3512 21.2218C9.35833 21.2204 9.36547 21.219 9.37261 21.2176C10.2962 21.0077 10.8914 20.1213 10.7487 19.1991L19.9314 13.9219C20.2298 14.0289 20.5609 14.0575 20.8935 13.989L21.9527 18.6753L11.8121 24.5035Z" fill="#F2F2F2"/>
<path d="M24.3165 29.1456L12.6543 35.8503L12.5572 35.4178C12.5572 35.4178 12.5729 35.4149 12.58 35.4135C13.5436 35.1951 14.1502 34.2373 13.9318 33.2723C13.7134 32.3074 12.7542 31.7021 11.7907 31.9191C11.7835 31.922 11.775 31.9234 11.7692 31.9248L11.488 30.6858C11.488 30.6858 11.5037 30.6829 11.5109 30.6815C11.9534 30.5816 12.3188 30.3275 12.5658 29.9863H12.5672L23.1346 23.9111L24.3165 29.1456Z" fill="#F2F2F2"/>
<path d="M26.6818 39.6173L15.2223 46.205L15.0053 46.2535L14.6955 44.8818C14.7027 44.8803 14.7098 44.8789 14.717 44.8775C15.6819 44.6591 16.2871 43.7013 16.0702 42.7363C15.8518 41.7714 14.8925 41.1661 13.929 41.3845C13.9204 41.3859 13.9133 41.3874 13.9062 41.3888L13.8376 41.0862L25.4999 34.3815L26.6818 39.6173Z" fill="#F2F2F2"/>
<path d="M20.8935 13.9905C20.4953 14.0718 20.0985 14.0133 19.7573 13.8491C19.4147 13.6836 19.025 13.6479 18.6539 13.7307L8.19214 16.0945L8.56185 17.7318C8.56185 17.7318 8.57612 17.7275 8.58326 17.7261C9.54678 17.5077 10.506 18.1143 10.7244 19.0793C10.9428 20.0443 10.3362 21.0021 9.37264 21.2205C9.3655 21.2219 9.35693 21.2233 9.3498 21.2248L9.62958 22.4638C9.62958 22.4638 9.64385 22.4595 9.65099 22.4581C10.6145 22.2397 11.5738 22.8449 11.7922 23.8099C12.0106 24.7748 11.4039 25.7326 10.4404 25.951C10.4332 25.9525 10.4247 25.9539 10.4175 25.9553L10.6973 27.1943C10.6973 27.1943 10.7116 27.19 10.7187 27.1886C11.6822 26.9702 12.6415 27.5755 12.8599 28.5404C13.0783 29.5054 12.4716 30.4646 11.5081 30.6816C11.501 30.683 11.4924 30.6844 11.4853 30.6859L11.765 31.9249C11.765 31.9249 11.7793 31.9206 11.7864 31.9192C12.75 31.7008 13.7092 32.306 13.9276 33.271C14.146 34.2359 13.5393 35.1952 12.5758 35.4121C12.5687 35.4136 12.5601 35.415 12.553 35.4164L12.8328 36.6554C12.8328 36.6554 12.847 36.6512 12.8542 36.6497C13.8177 36.4313 14.7769 37.038 14.9953 38.003C15.2137 38.9679 14.6071 39.9257 13.6436 40.1441C13.6364 40.1455 13.6278 40.147 13.6207 40.1484L13.9005 41.3874C13.9005 41.3874 13.9148 41.3831 13.9219 41.3817C14.8854 41.1633 15.8447 41.7685 16.0631 42.7335C16.2815 43.6985 15.6748 44.6563 14.7113 44.8747C14.7041 44.8761 14.6956 44.8775 14.6884 44.879L14.9982 46.2507L25.7683 43.8184C25.9938 43.767 26.1851 43.6257 26.3136 43.433C26.5534 43.0747 26.9216 42.802 27.3699 42.6907L20.8864 13.9876L20.8935 13.9905Z" stroke="black" stroke-width="0.5" stroke-linecap="round" stroke-linejoin="round"/>
<path d="M58.1412 4.81047L22.5322 12.8541C22.3081 12.9055 22.1168 13.0454 21.9897 13.2367C21.7442 13.6064 21.3617 13.8862 20.8949 13.9904L27.3784 42.6906C27.8451 42.585 28.3105 42.6735 28.6916 42.9004C28.8886 43.0189 29.1213 43.0632 29.3468 43.0132L64.9559 34.9695C65.4255 34.8639 65.7195 34.3971 65.6139 33.9275L59.1847 5.46567C59.0791 4.99604 58.6123 4.70199 58.1427 4.80762L58.1412 4.81047Z" fill="#F2F2F2" stroke="#0B0C1F" stroke-width="0.5" stroke-linecap="round" stroke-linejoin="round"/>
<path d="M59.1718 5.41855L60.605 11.7636C60.0925 12.0091 59.5458 12.2018 58.9691 12.3317C54.8724 13.2567 50.8013 10.7101 49.8335 6.63474L58.1298 4.7605C58.5994 4.65487 59.0648 4.94892 59.1718 5.41855Z" fill="#50B64A" stroke="#0B0C1F" stroke-width="0.5" stroke-linecap="round" stroke-linejoin="round"/>
<path d="M46.9586 30.9555C46.7873 30.9555 46.6417 30.8385 46.6046 30.6714L45.3541 25.1387C44.9516 23.3601 46.0721 21.5843 47.8522 21.1832L48.0663 21.1347C48.3232 21.0762 48.5859 21.0476 48.8471 21.0476C50.5043 21.0476 51.9175 22.1767 52.2844 23.7926C52.5456 24.946 52.4985 25.9038 52.1416 26.6389C51.8162 27.3098 51.2466 27.7537 50.4901 27.925C50.2817 27.9721 50.0718 27.9964 49.8663 27.9964C49.458 27.9964 49.0655 27.9022 48.7172 27.7223L49.2482 30.0748C49.2924 30.2703 49.1697 30.4645 48.9741 30.5087L47.0385 30.9455C47.0128 30.9512 46.9857 30.9541 46.9586 30.9541V30.9555ZM48.6901 23.4657C48.6387 23.4657 48.5873 23.4714 48.5373 23.4828C48.1219 23.577 47.8679 23.961 47.9578 24.3579L48.2204 25.5212C48.2304 25.564 48.2561 25.6026 48.2932 25.624C48.466 25.7296 48.7058 25.7924 48.9342 25.7924C49.0112 25.7924 49.084 25.7853 49.1468 25.771C49.6779 25.6511 49.8363 25.2443 49.6564 24.4506C49.4923 23.7241 49.0326 23.4657 48.6901 23.4657Z" fill="#50B64A"/>
<path d="M48.8471 21.1476C50.4116 21.1476 51.8262 22.2253 52.1859 23.814C52.7255 26.1936 51.8604 27.5125 50.4687 27.8266C50.2617 27.8737 50.0604 27.8951 49.8677 27.8951C49.3738 27.8951 48.9299 27.7523 48.5702 27.5197L49.1526 30.0948C49.184 30.2361 49.0955 30.3774 48.9542 30.4103L47.0185 30.8471C46.9986 30.8513 46.98 30.8542 46.96 30.8542C46.8401 30.8542 46.7316 30.7714 46.7031 30.6486L45.4526 25.1159C45.0629 23.3872 46.1464 21.67 47.875 21.2803L48.0891 21.2318C48.3432 21.1747 48.5973 21.1461 48.8471 21.1461M48.9342 25.891C49.0184 25.891 49.0983 25.8824 49.1697 25.8667C49.7963 25.7254 49.9348 25.2229 49.755 24.4264C49.5894 23.6955 49.1169 23.3644 48.6901 23.3644C48.6301 23.3644 48.5716 23.3715 48.5145 23.3844C48.052 23.4886 47.7551 23.9168 47.8593 24.3779L48.122 25.5412C48.1377 25.6098 48.1791 25.6711 48.2404 25.7082C48.4403 25.8296 48.7029 25.891 48.9342 25.891ZM48.8471 20.9463C48.5787 20.9463 48.3089 20.9763 48.0449 21.0362L47.8308 21.0848C46.9429 21.286 46.1863 21.8199 45.6996 22.5893C45.2142 23.3587 45.0558 24.2722 45.2571 25.1601L46.5075 30.6929C46.556 30.9056 46.7416 31.054 46.9586 31.054C46.9928 31.054 47.0271 31.0497 47.0614 31.0426L48.997 30.6058C49.1183 30.5787 49.2211 30.5059 49.2867 30.4017C49.3524 30.2975 49.3738 30.1733 49.3467 30.052L48.8599 27.8979C49.174 28.0278 49.5151 28.0964 49.8677 28.0964C50.0804 28.0964 50.2974 28.0721 50.5129 28.0236C51.2994 27.8466 51.8933 27.3826 52.2316 26.6832C52.597 25.9281 52.6484 24.9474 52.3814 23.7712C52.0046 22.1097 50.5515 20.9491 48.8471 20.9491V20.9463ZM48.9342 25.6911C48.7229 25.6911 48.5031 25.634 48.3446 25.537C48.3318 25.5284 48.3218 25.5141 48.3175 25.497L48.0549 24.3336C47.9764 23.9853 48.1933 23.6613 48.5588 23.5785C48.6016 23.5685 48.6458 23.5642 48.6901 23.5642C48.997 23.5642 49.4081 23.8012 49.5594 24.4706C49.6436 24.8418 49.6493 25.1287 49.5765 25.3228C49.508 25.507 49.3638 25.6183 49.124 25.6726C49.0684 25.6854 49.0027 25.6911 48.9327 25.6911H48.9342Z" fill="#0B0C1F"/>
<path d="M56.0386 26.5277C54.3728 26.5277 53.0038 25.4285 52.6356 23.7927C52.4186 22.8349 52.5813 21.8785 53.0938 21.1005C53.5991 20.3325 54.4042 19.7901 55.3634 19.5746C55.6546 19.5089 55.9487 19.4761 56.2384 19.4761C57.9114 19.4761 59.2832 20.5738 59.6529 22.2082C59.8684 23.1646 59.7043 24.1224 59.189 24.9018C58.6808 25.6698 57.8729 26.2122 56.9122 26.4292C56.6224 26.4948 56.3284 26.5277 56.04 26.5277H56.0386ZM56.1885 21.8414C56.0943 21.8414 55.9929 21.8528 55.8901 21.877C55.6717 21.927 55.3777 22.0426 55.215 22.3153C55.0751 22.5508 55.0465 22.8705 55.1293 23.2402C55.2121 23.61 55.3763 23.8855 55.6032 24.0382C55.6989 24.1024 55.863 24.1795 56.1014 24.1795C56.1956 24.1795 56.2955 24.1681 56.3997 24.1438C56.6181 24.0939 56.9136 23.9782 57.0749 23.7056C57.2134 23.4701 57.2434 23.1503 57.1606 22.7806C57.0778 22.4109 56.9136 22.1354 56.6867 21.9827C56.591 21.9184 56.4269 21.8414 56.1885 21.8414Z" fill="#50B64A"/>
<path d="M56.2385 19.5759C57.8158 19.5759 59.1819 20.5823 59.5544 22.231C59.9927 24.1709 58.805 25.901 56.8894 26.3335C56.6025 26.3977 56.317 26.4305 56.0386 26.4305C54.4642 26.4305 53.1053 25.4228 52.7327 23.7726C52.2945 21.8327 53.4707 20.1055 55.3849 19.673C55.6732 19.6073 55.9587 19.5759 56.2371 19.5759M56.1015 24.2779C56.1971 24.2779 56.3042 24.2665 56.4226 24.2408C56.661 24.1866 56.9822 24.0595 57.1606 23.7555C57.3134 23.4986 57.3462 23.1531 57.2577 22.7577C57.1692 22.3623 56.9908 22.0654 56.7424 21.8984C56.6253 21.8199 56.444 21.7399 56.1885 21.7399C56.0929 21.7399 55.9858 21.7514 55.8674 21.7771C55.629 21.8313 55.3078 21.9583 55.1294 22.2624C54.9766 22.5193 54.9438 22.8648 55.0323 23.2602C55.1208 23.6556 55.2992 23.9525 55.5476 24.1195C55.6647 24.198 55.8459 24.2779 56.1015 24.2779ZM56.2371 19.3761C55.9402 19.3761 55.639 19.4104 55.3406 19.4774C54.3557 19.7001 53.5278 20.2568 53.0096 21.0462C52.4829 21.847 52.3159 22.8305 52.5371 23.8155C52.9168 25.4984 54.3243 26.629 56.0386 26.629C56.3341 26.629 56.6353 26.5947 56.9337 26.5276C57.9186 26.3049 58.7494 25.7468 59.2704 24.9574C59.8014 24.1552 59.9713 23.1702 59.7486 22.1867C59.3689 20.5052 57.9571 19.3761 56.2371 19.3761ZM56.1015 24.0781C55.9302 24.0781 55.7803 24.0367 55.659 23.9539C55.4534 23.8155 55.3035 23.5614 55.2264 23.2174C55.1494 22.8733 55.1736 22.5793 55.3007 22.3666C55.4434 22.1239 55.7118 22.0197 55.9116 21.9755C56.0087 21.9541 56.1015 21.9426 56.1885 21.9426C56.3598 21.9426 56.5097 21.984 56.631 22.0668C56.8366 22.2053 56.9865 22.4594 57.0636 22.8034C57.1406 23.1474 57.1164 23.4415 56.9893 23.6542C56.8466 23.8968 56.5782 24.001 56.3784 24.0453C56.2813 24.0667 56.1885 24.0781 56.1015 24.0781Z" fill="#0B0C1F"/>
<path d="M31.5694 32.0533C29.9078 32.0533 28.5432 30.957 28.1749 29.3254C27.9622 28.3819 28.1178 27.4441 28.6117 26.6732C28.2134 26.4134 27.9522 26.0209 27.8366 25.5056C27.5868 24.3965 28.2505 22.9933 30.3004 22.5294C30.6915 22.4409 31.0912 22.3966 31.4894 22.3966C32.039 22.3966 32.5786 22.4808 33.0953 22.6464C33.2794 22.7064 33.3865 22.8991 33.338 23.0875L32.9811 24.4593C32.9383 24.622 32.7955 24.7348 32.6314 24.7348C32.59 24.7348 32.5472 24.7276 32.5072 24.7134C32.1432 24.582 31.7321 24.5092 31.3524 24.5092C31.1497 24.5092 30.9556 24.5292 30.7757 24.5706C30.6215 24.6049 30.4888 24.6605 30.3988 24.7262C30.3289 24.7776 30.3032 24.8247 30.3089 24.849C30.3289 24.936 30.6501 24.9674 30.9356 24.9946L31.0612 25.0074C32.2203 25.123 34.6341 25.3657 35.1722 27.7452C35.3878 28.6988 35.2236 29.6537 34.7097 30.4303C34.203 31.1968 33.3979 31.7378 32.4401 31.9534C32.1503 32.019 31.8577 32.0519 31.5708 32.0519L31.5694 32.0533ZM31.0697 27.1943C31.0612 27.1943 31.0512 27.1971 31.0455 27.2028C30.5659 27.6739 30.4916 28.2748 30.5844 28.6817C30.7172 29.2669 31.1183 29.6152 31.6593 29.6152C31.7606 29.6152 31.8677 29.6024 31.9776 29.5781C32.323 29.4996 32.5914 29.324 32.7541 29.0699C32.9026 28.8372 32.9497 28.5532 32.8855 28.2734C32.7099 27.4969 32.0618 27.2856 31.074 27.1957L31.0712 27.0958V27.1957L31.0697 27.1943Z" fill="#50B64A"/>
<path d="M31.4894 22.4965C32.049 22.4965 32.5814 22.5865 33.0653 22.742C33.1995 22.7849 33.2766 22.9262 33.2409 23.0632L32.884 24.435C32.8526 24.5563 32.747 24.6363 32.6314 24.6363C32.6014 24.6363 32.5714 24.6306 32.5414 24.6206C32.2103 24.5007 31.7863 24.4107 31.3524 24.4107C31.1525 24.4107 30.9498 24.4293 30.7543 24.475C30.4074 24.5535 30.179 24.7262 30.2118 24.8732C30.2518 25.0474 30.5887 25.0631 31.0512 25.1087C32.4686 25.2515 34.5813 25.5869 35.0737 27.7695C35.5105 29.7037 34.3257 31.4281 32.4173 31.8591C32.1303 31.9234 31.8463 31.9548 31.5693 31.9548C29.9992 31.9548 28.6445 30.9499 28.2734 29.3054C28.0493 28.3134 28.2491 27.3784 28.7544 26.6433C28.369 26.422 28.065 26.058 27.9351 25.4842C27.6724 24.3222 28.4518 23.0504 30.3232 22.6278C30.72 22.5379 31.1111 22.4965 31.4894 22.4965ZM31.6593 29.7151C31.7663 29.7151 31.8805 29.7023 31.999 29.6752C32.787 29.4967 33.1196 28.8544 32.9825 28.2491C32.7812 27.3613 31.9876 27.1757 31.0826 27.0929C31.0783 27.0929 31.074 27.0929 31.0697 27.0929C31.0355 27.0929 31.0012 27.1057 30.9755 27.13C30.5116 27.5854 30.3732 28.2049 30.4859 28.7016C30.623 29.3054 31.0483 29.7137 31.6579 29.7137M31.488 22.2953V22.4951V22.2953C31.084 22.2953 30.6758 22.3409 30.2775 22.4309C29.3525 22.6393 28.6231 23.0632 28.1692 23.6542C27.7438 24.208 27.5911 24.8732 27.7381 25.5256C27.8523 26.0323 28.1007 26.4263 28.4761 26.6989C28.0064 27.4769 27.8651 28.409 28.0764 29.3454C28.4561 31.0227 29.8578 32.1503 31.5679 32.1503C31.8634 32.1503 32.1632 32.1161 32.4601 32.049C34.5127 31.5851 35.7204 29.7237 35.2679 27.721C34.714 25.2715 32.1603 25.0145 31.0697 24.9046L30.9427 24.8918C30.76 24.8746 30.5387 24.8532 30.4374 24.819C30.4902 24.7747 30.6044 24.7076 30.7957 24.6648C30.9684 24.6263 31.154 24.6063 31.3495 24.6063C31.7178 24.6063 32.1161 24.6762 32.4701 24.8047C32.5215 24.8233 32.5743 24.8333 32.6285 24.8333C32.8383 24.8333 33.0211 24.6891 33.0753 24.4821L33.4322 23.1103C33.495 22.8705 33.3594 22.625 33.1238 22.5493C32.5971 22.3809 32.0475 22.2953 31.488 22.2938V22.2953ZM31.6579 29.5138C31.1668 29.5138 30.8028 29.1941 30.6815 28.6574C30.5973 28.2834 30.6629 27.7324 31.094 27.2942C32.3416 27.4126 32.6685 27.7638 32.787 28.292C32.8441 28.546 32.8027 28.803 32.6685 29.0128C32.5215 29.2441 32.2731 29.4054 31.9548 29.4782C31.8534 29.501 31.7535 29.5124 31.6593 29.5124L31.6579 29.5138Z" fill="#0B0C1F"/>
<path d="M38.735 22.8277C38.5466 22.8277 38.3881 22.6807 38.3724 22.4922L38.2354 20.6965C38.2211 20.5181 38.3439 20.3539 38.518 20.314L39.8655 20.0099C39.8926 20.0042 39.9198 20.0013 39.9469 20.0013C40.0482 20.0013 40.1453 20.0442 40.2138 20.1184C40.2838 20.194 40.3166 20.2911 40.308 20.3939L40.1539 22.2553C40.141 22.4137 40.0268 22.5451 39.8712 22.5793L38.8164 22.8177C38.7892 22.8234 38.7621 22.8263 38.7364 22.8263L38.735 22.8277Z" fill="#50B64A"/>
<path d="M39.9469 20.0999C40.0968 20.0999 40.2224 20.2283 40.2081 20.3854L40.054 22.2467C40.044 22.3609 39.9612 22.4566 39.8499 22.4823L38.795 22.7207C38.775 22.7249 38.7564 22.7278 38.7364 22.7278C38.6023 22.7278 38.4852 22.625 38.4738 22.4837L38.3368 20.688C38.3268 20.5581 38.4138 20.4396 38.5409 20.4111L39.8884 20.107C39.9084 20.1027 39.9284 20.0999 39.9469 20.0999ZM39.9469 19.9C39.9127 19.9 39.8784 19.9043 39.8441 19.9114L38.4966 20.2155C38.274 20.2654 38.1198 20.4753 38.1369 20.7022L38.274 22.498C38.2925 22.7378 38.4952 22.9262 38.735 22.9262C38.7693 22.9262 38.8035 22.9219 38.8378 22.9148L39.8927 22.6764C40.0911 22.6322 40.2353 22.4651 40.2524 22.2624L40.4066 20.4011C40.4165 20.2726 40.3737 20.1441 40.2867 20.0499C40.1996 19.9543 40.0754 19.9 39.9469 19.9Z" fill="#0B0C1F"/>
<path d="M38.4425 30.5159C36.7281 30.5159 35.7989 29.1042 35.5005 27.7824C35.138 26.1779 35.5448 24.7291 35.7375 24.1809C35.7846 24.0467 35.9059 23.9525 36.0458 23.9383L37.9386 23.7584C37.95 23.7584 37.9629 23.757 37.9743 23.757C38.0913 23.757 38.2013 23.8141 38.2698 23.9111C38.3383 24.0082 38.3554 24.1295 38.3155 24.2423C38.1213 24.7904 37.8401 25.901 38.1313 27.1871C38.2598 27.7538 38.3583 28.0978 38.6552 28.0978C38.6909 28.0978 38.7308 28.0936 38.7722 28.0836C38.9721 28.0379 39.062 27.9408 39.0791 27.7467C39.0963 27.544 39.0335 27.2628 38.9592 26.9359L38.7137 25.8496C38.6695 25.6541 38.7922 25.4599 38.9878 25.4157L40.6308 25.0445C40.6579 25.0388 40.6836 25.036 40.7107 25.036C40.882 25.036 41.0276 25.153 41.0647 25.3186L41.3102 26.4049C41.4544 27.043 41.5429 27.377 41.8441 27.377C41.8826 27.377 41.9255 27.3713 41.9711 27.3613C42.1624 27.3185 42.2523 27.2171 42.2695 27.0215C42.288 26.8231 42.2281 26.5576 42.1638 26.2764C41.8726 24.9889 41.1418 24.1081 40.7321 23.6956C40.6436 23.6071 40.6065 23.4815 40.6336 23.3601C40.6607 23.2388 40.7464 23.1403 40.8634 23.0975L42.6506 22.4466C42.6906 22.4323 42.732 22.4252 42.7748 22.4252C42.8719 22.4252 42.9646 22.4637 43.0332 22.5337C43.4428 22.9462 44.4321 24.0796 44.7946 25.684C44.9959 26.5719 44.9274 27.4398 44.6034 28.1278C44.2322 28.9172 43.5385 29.4468 42.6006 29.6595C42.3965 29.7051 42.1953 29.7294 42.0054 29.7294C41.3231 29.7294 40.9077 29.4354 40.715 29.2541C40.5951 29.5667 40.2297 30.1948 39.1876 30.4303C38.9321 30.4874 38.6809 30.5174 38.4411 30.5174L38.4425 30.5159Z" fill="#50B64A"/>
<path d="M42.7762 22.5265C42.8447 22.5265 42.9132 22.5537 42.9632 22.6051C43.3172 22.9619 44.3349 24.101 44.6989 25.7069C45.0701 27.3527 44.5433 29.1199 42.5806 29.5624C42.3708 29.6095 42.1809 29.6295 42.0082 29.6295C41.0832 29.6295 40.6735 29.0571 40.6735 29.0571C40.6735 29.0571 40.4994 30.0321 39.169 30.3333C38.9149 30.3903 38.6737 30.4175 38.4439 30.4175C36.9008 30.4175 35.923 29.1956 35.599 27.7624C35.2364 26.1565 35.6661 24.6906 35.8331 24.2166C35.8673 24.1196 35.9544 24.0511 36.0572 24.0411L37.95 23.8612C37.9585 23.8612 37.9671 23.8612 37.9757 23.8612C38.1541 23.8612 38.284 24.0396 38.2226 24.2138C38.0228 24.7805 37.7401 25.9067 38.0356 27.2143C38.1541 27.7367 38.2597 28.2021 38.6566 28.2021C38.6994 28.2021 38.7451 28.1964 38.795 28.1849C39.3346 28.0636 39.2019 27.5597 39.0406 26.8489L38.8107 25.8325C38.7793 25.6912 38.8678 25.5499 39.0091 25.517L40.6521 25.1459C40.6721 25.1416 40.6907 25.1388 40.7107 25.1388C40.8306 25.1388 40.9391 25.2216 40.9676 25.3443L41.1974 26.3607C41.3416 27.0016 41.4344 27.4798 41.8455 27.4798C41.8912 27.4798 41.9397 27.4741 41.9939 27.4612C42.5078 27.3456 42.3936 26.8374 42.2623 26.2579C41.9668 24.9504 41.2288 24.0553 40.8034 23.6285C40.6664 23.4915 40.7178 23.2603 40.8991 23.1946L42.6862 22.5437C42.7162 22.5323 42.7462 22.528 42.7762 22.528M42.7762 22.3281C42.7219 22.3281 42.6691 22.3381 42.6177 22.3567L40.8306 23.0076C40.6807 23.0618 40.5722 23.1875 40.5365 23.3416C40.5023 23.4972 40.5494 23.6571 40.6607 23.7699C41.0632 24.1738 41.7812 25.0389 42.0667 26.3021C42.1281 26.5748 42.1866 26.8332 42.1695 27.0159C42.1552 27.1672 42.0981 27.2328 41.9483 27.2671C41.9097 27.2757 41.874 27.2799 41.8441 27.2799C41.6299 27.2799 41.5471 27.0073 41.4073 26.3864L41.3916 26.3164L41.1617 25.3001C41.1132 25.0874 40.9276 24.9389 40.7107 24.9389C40.6764 24.9389 40.6421 24.9432 40.6079 24.9504L38.9649 25.3215C38.7151 25.3772 38.5581 25.627 38.6152 25.8753L38.845 26.8917L38.8607 26.9616C38.9335 27.2799 38.9949 27.5554 38.9792 27.7424C38.9678 27.8723 38.9278 27.9494 38.7508 27.9894C38.7165 27.9965 38.6837 28.0008 38.6566 28.0008C38.4339 28.0008 38.3468 27.6868 38.2312 27.1686C37.9457 25.9053 38.2226 24.8162 38.4125 24.278C38.4624 24.1353 38.441 23.9783 38.354 23.8555C38.2669 23.7327 38.127 23.6599 37.9771 23.6599C37.9628 23.6599 37.9471 23.6599 37.9329 23.6614L36.0401 23.8412C35.8602 23.8584 35.706 23.9797 35.6461 24.1496C35.452 24.7063 35.038 26.1765 35.4063 27.8052C35.5847 28.5932 35.9359 29.2712 36.424 29.7666C36.9722 30.3218 37.6716 30.6159 38.4453 30.6159C38.6937 30.6159 38.952 30.5859 39.2147 30.526C40.1725 30.309 40.5865 29.768 40.7578 29.4154C40.9933 29.6024 41.4015 29.8265 42.0111 29.8265C42.2081 29.8265 42.4165 29.8022 42.6277 29.7537C43.597 29.5353 44.3135 28.9857 44.6989 28.1678C45.0315 27.4598 45.1029 26.5691 44.8974 25.6598C44.5291 24.0296 43.5242 22.8806 43.1088 22.4609C43.0203 22.3724 42.9046 22.3239 42.779 22.3239L42.7762 22.3281Z" fill="#0B0C1F"/>
<path d="M44.1974 20.4966L43.2195 19.654L43.7003 18.6293L42.9779 18.8072L42.5917 19.6975L42.407 18.9479L41.8089 19.0952L42.271 20.9712L42.8691 20.8238L42.7581 20.3733L42.8842 20.1156L43.4595 20.6784L44.1974 20.4966ZM45.2695 20.2819C45.9143 20.123 46.182 19.571 46.0518 19.0428C45.9217 18.5145 45.4291 18.1539 44.7844 18.3127C44.1475 18.4697 43.8749 19.0188 44.005 19.547C44.1352 20.0752 44.6326 20.4388 45.2695 20.2819ZM45.1394 19.7537C44.8792 19.8178 44.6848 19.6473 44.6226 19.3949C44.5613 19.1463 44.6543 18.9051 44.9145 18.8409C45.1786 18.7759 45.3769 18.9454 45.4382 19.1939C45.5004 19.4464 45.4035 19.6886 45.1394 19.7537ZM47.5423 19.7219C48.187 19.5631 48.4566 19.0188 48.3035 18.3974C48.2337 18.1139 48.0679 17.7922 47.8145 17.5662L47.3233 17.9303C47.5023 18.0881 47.6353 18.3272 47.6899 18.5486C47.7731 18.8865 47.6762 19.1287 47.4121 19.1937C47.2024 19.2454 47.0379 19.1129 46.9824 18.8876L46.7346 17.8817L46.1365 18.0291L46.3872 19.0466C46.5173 19.5749 46.9131 19.877 47.5423 19.7219ZM50.8553 18.8563L50.5214 17.5008L50.8321 17.4243L50.7039 16.9038L48.2182 17.5162L48.3464 18.0367L48.6571 17.9601L48.9911 19.3156L49.5853 19.1692L49.2514 17.8137L49.9271 17.6472L50.2611 19.0027L50.8553 18.8563ZM51.8748 16.3517L51.9614 15.4323L51.4953 15.5471L51.6223 16.4139L51.8748 16.3517ZM52.3242 18.5438C52.9689 18.385 53.2367 17.8329 53.1065 17.3047C52.9764 16.7765 52.4838 16.4159 51.8391 16.5747C51.2021 16.7316 50.9296 17.2808 51.0597 17.809C51.1899 18.3372 51.6873 18.7008 52.3242 18.5438ZM52.1941 18.0156C51.9339 18.0797 51.7395 17.9093 51.6773 17.6569C51.616 17.4083 51.709 17.167 51.9692 17.1029C52.2333 17.0379 52.4316 17.2073 52.4929 17.4559C52.5551 17.7084 52.4582 17.9506 52.1941 18.0156ZM54.7331 17.901C54.9959 17.346 55.1056 16.4868 54.9506 15.8576L54.3563 16.004C54.4568 16.4118 54.4695 16.9648 54.3342 17.3689L53.564 16.1992L52.9348 16.3542L54.1349 18.0483L54.7331 17.901ZM56.2919 17.5663C56.3774 17.5453 56.4833 17.5069 56.5474 17.4663L56.3842 16.971C56.3667 16.9835 56.3405 16.9941 56.3133 17.0008C56.2317 17.0209 56.1571 16.9857 56.1332 16.8886L55.8261 15.6419L55.2279 15.7893L55.5657 17.1603C55.6547 17.5215 55.9074 17.6611 56.2919 17.5663Z" fill="#363636"/>
<path d="M44.1974 20.4966L44.2213 20.5937C44.2577 20.5847 44.286 20.5562 44.2947 20.5198C44.3034 20.4834 44.291 20.4452 44.2627 20.4208L44.1974 20.4966ZM43.2195 19.654L43.129 19.6116C43.1099 19.6522 43.1202 19.7005 43.1542 19.7298L43.2195 19.654ZM43.7003 18.6293L43.7908 18.6717C43.8072 18.6368 43.8021 18.5957 43.7776 18.5659C43.7532 18.5361 43.7138 18.5229 43.6764 18.5322L43.7003 18.6293ZM42.9779 18.8072L42.954 18.7101C42.9237 18.7176 42.8986 18.7388 42.8862 18.7674L42.9779 18.8072ZM42.5917 19.6975L42.4946 19.7214C42.5048 19.7631 42.5405 19.7935 42.5833 19.7971C42.626 19.8007 42.6663 19.7766 42.6834 19.7373L42.5917 19.6975ZM42.407 18.9479L42.5041 18.924C42.4909 18.8703 42.4367 18.8376 42.3831 18.8508L42.407 18.9479ZM41.8089 19.0952L41.7849 18.9981C41.7313 19.0114 41.6986 19.0655 41.7118 19.1192L41.8089 19.0952ZM42.271 20.9712L42.1739 20.9951C42.1871 21.0487 42.2413 21.0815 42.2949 21.0683L42.271 20.9712ZM42.8691 20.8238L42.8931 20.9209C42.9467 20.9077 42.9794 20.8535 42.9662 20.7999L42.8691 20.8238ZM42.7581 20.3733L42.6683 20.3293C42.658 20.3504 42.6554 20.3744 42.661 20.3972L42.7581 20.3733ZM42.8842 20.1156L42.9541 20.0442C42.9311 20.0217 42.8988 20.0116 42.8672 20.0171C42.8355 20.0226 42.8085 20.0429 42.7943 20.0717L42.8842 20.1156ZM43.4595 20.6784L43.3896 20.7498C43.4143 20.7741 43.4498 20.7837 43.4834 20.7755L43.4595 20.6784ZM44.2627 20.4208L43.2848 19.5783L43.1542 19.7298L44.1322 20.5723L44.2627 20.4208ZM43.31 19.6965L43.7908 18.6717L43.6098 18.5868L43.129 19.6116L43.31 19.6965ZM43.6764 18.5322L42.954 18.7101L43.0018 18.9043L43.7242 18.7264L43.6764 18.5322ZM42.8862 18.7674L42.4999 19.6577L42.6834 19.7373L43.0696 18.847L42.8862 18.7674ZM42.6887 19.6736L42.5041 18.924L42.3099 18.9718L42.4946 19.7214L42.6887 19.6736ZM42.3831 18.8508L41.7849 18.9981L41.8328 19.1923L42.4309 19.045L42.3831 18.8508ZM41.7118 19.1192L42.1739 20.9951L42.3681 20.9472L41.906 19.0713L41.7118 19.1192ZM42.2949 21.0683L42.8931 20.9209L42.8452 20.7267L42.2471 20.8741L42.2949 21.0683ZM42.9662 20.7999L42.8552 20.3494L42.661 20.3972L42.772 20.8477L42.9662 20.7999ZM42.848 20.4172L42.974 20.1596L42.7943 20.0717L42.6683 20.3293L42.848 20.4172ZM42.8143 20.1871L43.3896 20.7498L43.5294 20.6069L42.9541 20.0442L42.8143 20.1871ZM43.4834 20.7755L44.2213 20.5937L44.1735 20.3995L43.4356 20.5813L43.4834 20.7755ZM45.2935 20.379C45.9943 20.2063 46.2917 19.5982 46.1489 19.0188L45.9547 19.0667C46.0723 19.5438 45.8342 20.0398 45.2456 20.1848L45.2935 20.379ZM46.1489 19.0188C46.0781 18.7314 45.9077 18.4863 45.6638 18.3351C45.419 18.1834 45.1068 18.1303 44.7605 18.2156L44.8083 18.4098C45.1068 18.3363 45.3632 18.3841 45.5584 18.5051C45.7545 18.6266 45.8954 18.826 45.9547 19.0667L46.1489 19.0188ZM44.7605 18.2156C44.0679 18.3863 43.7651 18.9911 43.9079 19.5709L44.1021 19.5231C43.9847 19.0465 44.227 18.5531 44.8083 18.4098L44.7605 18.2156ZM43.9079 19.5709C44.0507 20.1503 44.6004 20.5497 45.2935 20.379L45.2456 20.1848C44.6648 20.3279 44.2197 20.0002 44.1021 19.5231L43.9079 19.5709ZM45.1155 19.6566C45.0135 19.6817 44.9307 19.6606 44.8664 19.6127C44.7999 19.5633 44.7465 19.4797 44.7197 19.371L44.5255 19.4188C44.5609 19.5625 44.6357 19.6904 44.747 19.7732C44.8606 19.8577 45.0051 19.8897 45.1633 19.8508L45.1155 19.6566ZM44.7197 19.371C44.6934 19.2645 44.702 19.1666 44.738 19.0923C44.7728 19.0204 44.8365 18.9632 44.9385 18.938L44.8906 18.7439C44.7324 18.7828 44.6194 18.8783 44.558 19.0052C44.4978 19.1296 44.4905 19.2767 44.5255 19.4188L44.7197 19.371ZM44.9385 18.938C45.043 18.9123 45.1282 18.9334 45.1938 18.9808C45.2614 19.0298 45.315 19.112 45.3411 19.2179L45.5353 19.17C45.5001 19.0273 45.424 18.9005 45.3111 18.8188C45.1962 18.7357 45.0502 18.7045 44.8906 18.7439L44.9385 18.938ZM45.3411 19.2179C45.3677 19.326 45.3585 19.4248 45.3215 19.4998C45.2856 19.5726 45.22 19.6308 45.1155 19.6566L45.1633 19.8508C45.3229 19.8114 45.4378 19.716 45.5008 19.5883C45.5627 19.4629 45.5708 19.3143 45.5353 19.17L45.3411 19.2179ZM47.8145 17.5662L47.8811 17.4916C47.8457 17.4601 47.793 17.4577 47.755 17.4859L47.8145 17.5662ZM47.3233 17.9303L47.2638 17.85C47.2395 17.8679 47.2247 17.8959 47.2234 17.9261C47.2221 17.9562 47.2346 17.9853 47.2572 18.0053L47.3233 17.9303ZM46.7346 17.8817L46.8317 17.8578C46.8185 17.8042 46.7643 17.7714 46.7107 17.7846L46.7346 17.8817ZM46.1365 18.0291L46.1126 17.932C46.059 17.9452 46.0262 17.9994 46.0394 18.053L46.1365 18.0291ZM47.5662 19.819C47.9124 19.7338 48.1658 19.5423 48.3096 19.2814C48.4529 19.0218 48.482 18.7037 48.4006 18.3735L48.2064 18.4213C48.2781 18.7125 48.249 18.9773 48.1345 19.1848C48.0207 19.3912 47.8169 19.5513 47.5183 19.6248L47.5662 19.819ZM48.4006 18.3735C48.3268 18.074 48.1521 17.7333 47.8811 17.4916L47.7479 17.6409C47.9837 17.8511 48.1405 18.1538 48.2064 18.4213L48.4006 18.3735ZM47.755 17.4859L47.2638 17.85L47.3829 18.0106L47.874 17.6466L47.755 17.4859ZM47.2572 18.0053C47.4191 18.1481 47.5425 18.3685 47.5928 18.5725L47.787 18.5247C47.7281 18.2859 47.5854 18.0281 47.3895 17.8553L47.2572 18.0053ZM47.5928 18.5725C47.6313 18.7291 47.6247 18.8503 47.5891 18.9346C47.5555 19.0143 47.4919 19.0711 47.3882 19.0966L47.4361 19.2908C47.5965 19.2513 47.7134 19.1545 47.7734 19.0124C47.8315 18.8748 47.8316 18.7059 47.787 18.5247L47.5928 18.5725ZM47.3882 19.0966C47.3108 19.1157 47.248 19.1004 47.1988 19.0641C47.1476 19.0262 47.1031 18.9593 47.0795 18.8637L46.8853 18.9116C46.9173 19.0412 46.9828 19.1532 47.0801 19.225C47.1794 19.2983 47.3038 19.3234 47.4361 19.2908L47.3882 19.0966ZM47.0795 18.8637L46.8317 17.8578L46.6375 17.9056L46.8853 18.9116L47.0795 18.8637ZM46.7107 17.7846L46.1126 17.932L46.1604 18.1262L46.7585 17.9788L46.7107 17.7846ZM46.0394 18.053L46.2901 19.0706L46.4843 19.0227L46.2336 18.0052L46.0394 18.053ZM46.2901 19.0706C46.3596 19.3527 46.503 19.5857 46.7243 19.7251C46.9463 19.8651 47.2319 19.9014 47.5662 19.819L47.5183 19.6248C47.2234 19.6975 46.9965 19.6603 46.8309 19.5559C46.6644 19.451 46.5449 19.2688 46.4843 19.0227L46.2901 19.0706ZM50.8553 18.8563L50.8792 18.9534C50.9329 18.9402 50.9656 18.886 50.9524 18.8324L50.8553 18.8563ZM50.5214 17.5008L50.4975 17.4037C50.4438 17.4169 50.4111 17.4711 50.4243 17.5247L50.5214 17.5008ZM50.8321 17.4243L50.856 17.5214C50.9096 17.5082 50.9424 17.454 50.9292 17.4004L50.8321 17.4243ZM50.7039 16.9038L50.801 16.8799C50.7878 16.8263 50.7336 16.7935 50.6799 16.8067L50.7039 16.9038ZM48.2182 17.5162L48.1943 17.4191C48.1406 17.4323 48.1079 17.4865 48.1211 17.5401L48.2182 17.5162ZM48.3464 18.0367L48.2493 18.0606C48.2625 18.1142 48.3167 18.147 48.3703 18.1338L48.3464 18.0367ZM48.6571 17.9601L48.7542 17.9362C48.741 17.8826 48.6868 17.8498 48.6332 17.863L48.6571 17.9601ZM48.9911 19.3156L48.894 19.3395C48.9072 19.3931 48.9614 19.4259 49.015 19.4127L48.9911 19.3156ZM49.5853 19.1692L49.6092 19.2663C49.6628 19.2531 49.6956 19.1989 49.6824 19.1453L49.5853 19.1692ZM49.2514 17.8137L49.2274 17.7166C49.1738 17.7298 49.141 17.784 49.1543 17.8376L49.2514 17.8137ZM49.9271 17.6472L50.0242 17.6233C50.011 17.5697 49.9568 17.5369 49.9032 17.5501L49.9271 17.6472ZM50.2611 19.0027L50.164 19.0266C50.1772 19.0802 50.2314 19.113 50.285 19.0998L50.2611 19.0027ZM50.9524 18.8324L50.6185 17.4769L50.4243 17.5247L50.7582 18.8802L50.9524 18.8324ZM50.5453 17.5979L50.856 17.5214L50.8082 17.3272L50.4975 17.4037L50.5453 17.5979ZM50.9292 17.4004L50.801 16.8799L50.6068 16.9278L50.735 17.4482L50.9292 17.4004ZM50.6799 16.8067L48.1943 17.4191L48.2421 17.6133L50.7278 17.0009L50.6799 16.8067ZM48.1211 17.5401L48.2493 18.0606L48.4435 18.0127L48.3153 17.4923L48.1211 17.5401ZM48.3703 18.1338L48.681 18.0572L48.6332 17.863L48.3225 17.9396L48.3703 18.1338ZM48.56 17.984L48.894 19.3395L49.0882 19.2917L48.7542 17.9362L48.56 17.984ZM49.015 19.4127L49.6092 19.2663L49.5614 19.0721L48.9671 19.2185L49.015 19.4127ZM49.6824 19.1453L49.3484 17.7898L49.1543 17.8376L49.4882 19.1931L49.6824 19.1453ZM49.2753 17.9108L49.9511 17.7443L49.9032 17.5501L49.2274 17.7166L49.2753 17.9108ZM49.83 17.6711L50.164 19.0266L50.3582 18.9788L50.0242 17.6233L49.83 17.6711ZM50.285 19.0998L50.8792 18.9534L50.8314 18.7592L50.2372 18.9056L50.285 19.0998ZM51.8748 16.3517L51.8987 16.4488C51.94 16.4386 51.9704 16.4034 51.9743 16.3611L51.8748 16.3517ZM51.9614 15.4323L52.0609 15.4417C52.064 15.4094 52.0512 15.3777 52.0267 15.3566C52.0021 15.3354 51.9689 15.3275 51.9374 15.3352L51.9614 15.4323ZM51.4953 15.5471L51.4714 15.45C51.4214 15.4624 51.3889 15.5107 51.3964 15.5616L51.4953 15.5471ZM51.6223 16.4139L51.5234 16.4284C51.5275 16.4563 51.5432 16.4812 51.5665 16.4969C51.5899 16.5126 51.6189 16.5177 51.6463 16.511L51.6223 16.4139ZM51.9743 16.3611L52.0609 15.4417L51.8618 15.4229L51.7752 16.3423L51.9743 16.3611ZM51.9374 15.3352L51.4714 15.45L51.5192 15.6442L51.9853 15.5294L51.9374 15.3352ZM51.3964 15.5616L51.5234 16.4284L51.7213 16.3994L51.5942 15.5326L51.3964 15.5616ZM51.6463 16.511L51.8987 16.4488L51.8509 16.2546L51.5984 16.3168L51.6463 16.511ZM52.3481 18.6409C53.049 18.4683 53.3463 17.8601 53.2036 17.2808L53.0094 17.3287C53.127 17.8057 52.8889 18.3017 52.3003 18.4467L52.3481 18.6409ZM53.2036 17.2808C53.1328 16.9933 52.9624 16.7482 52.7185 16.5971C52.4737 16.4454 52.1614 16.3923 51.8152 16.4776L51.863 16.6718C52.1615 16.5983 52.4178 16.6461 52.6131 16.7671C52.8092 16.8886 52.9501 17.0879 53.0094 17.3287L53.2036 17.2808ZM51.8152 16.4776C51.1226 16.6483 50.8198 17.2531 50.9626 17.8329L51.1568 17.7851C51.0394 17.3085 51.2817 16.815 51.863 16.6718L51.8152 16.4776ZM50.9626 17.8329C51.1054 18.4122 51.6551 18.8117 52.3481 18.6409L52.3003 18.4467C51.7194 18.5898 51.2744 18.2622 51.1568 17.7851L50.9626 17.8329ZM52.1702 17.9185C52.0682 17.9437 51.9854 17.9225 51.9211 17.8747C51.8546 17.8253 51.8011 17.7417 51.7744 17.6329L51.5802 17.6808C51.6156 17.8245 51.6904 17.9524 51.8017 18.0352C51.9153 18.1197 52.0598 18.1517 52.218 18.1127L52.1702 17.9185ZM51.7744 17.6329C51.7481 17.5265 51.7567 17.4286 51.7927 17.3543C51.8275 17.2824 51.8911 17.2252 51.9932 17.2L51.9453 17.0058C51.7871 17.0448 51.6741 17.1402 51.6127 17.2671C51.5524 17.3916 51.5452 17.5387 51.5802 17.6808L51.7744 17.6329ZM51.9932 17.2C52.0977 17.1743 52.1829 17.1954 52.2485 17.2428C52.3161 17.2917 52.3697 17.374 52.3958 17.4798L52.59 17.432C52.5548 17.2893 52.4787 17.1625 52.3658 17.0808C52.2508 16.9976 52.1049 16.9665 51.9453 17.0058L51.9932 17.2ZM52.3958 17.4798C52.4224 17.588 52.4132 17.6867 52.3762 17.7618C52.3403 17.8346 52.2747 17.8928 52.1702 17.9185L52.218 18.1127C52.3776 18.0734 52.4925 17.978 52.5555 17.8503C52.6174 17.7249 52.6255 17.5763 52.59 17.432L52.3958 17.4798ZM54.7331 17.901L54.757 17.9981C54.7862 17.9909 54.8106 17.9709 54.8234 17.9438L54.7331 17.901ZM54.9506 15.8576L55.0477 15.8337C55.0345 15.7801 54.9803 15.7473 54.9267 15.7605L54.9506 15.8576ZM54.3563 16.004L54.3324 15.9069C54.2788 15.9201 54.246 15.9743 54.2592 16.0279L54.3563 16.004ZM54.3342 17.3689L54.2507 17.4239C54.2717 17.4559 54.3092 17.473 54.3471 17.4681C54.3851 17.4631 54.4169 17.437 54.429 17.4007L54.3342 17.3689ZM53.564 16.1992L53.6476 16.1442C53.6243 16.1088 53.5812 16.092 53.5401 16.1021L53.564 16.1992ZM52.9348 16.3542L52.9109 16.2571C52.8788 16.265 52.8527 16.2883 52.8411 16.3193C52.8296 16.3503 52.8341 16.385 52.8532 16.412L52.9348 16.3542ZM54.1349 18.0483L54.0533 18.1061C54.0771 18.1397 54.119 18.1552 54.1589 18.1454L54.1349 18.0483ZM54.8234 17.9438C55.0954 17.3695 55.2086 16.4868 55.0477 15.8337L54.8535 15.8815C55.0026 16.4868 54.8964 17.3224 54.6427 17.8582L54.8234 17.9438ZM54.9267 15.7605L54.3324 15.9069L54.3803 16.1011L54.9745 15.9547L54.9267 15.7605ZM54.2592 16.0279C54.3564 16.4225 54.3672 16.9555 54.2394 17.3372L54.429 17.4007C54.5718 16.9742 54.5572 16.4012 54.4534 15.9801L54.2592 16.0279ZM54.4177 17.3139L53.6476 16.1442L53.4805 16.2542L54.2507 17.4239L54.4177 17.3139ZM53.5401 16.1021L52.9109 16.2571L52.9588 16.4513L53.588 16.2963L53.5401 16.1021ZM52.8532 16.412L54.0533 18.1061L54.2165 17.9905L53.0164 16.2964L52.8532 16.412ZM54.1589 18.1454L54.757 17.9981L54.7091 17.8039L54.111 17.9512L54.1589 18.1454ZM56.5474 17.4663L56.6008 17.5509C56.6396 17.5264 56.6568 17.4786 56.6424 17.435L56.5474 17.4663ZM56.3842 16.971L56.4792 16.9397C56.4692 16.9095 56.4454 16.8858 56.4152 16.8759C56.3849 16.8661 56.3518 16.8712 56.3259 16.8897L56.3842 16.971ZM55.8261 15.6419L55.9232 15.618C55.9099 15.5644 55.8558 15.5316 55.8021 15.5448L55.8261 15.6419ZM55.2279 15.7893L55.204 15.6922C55.1504 15.7054 55.1176 15.7596 55.1308 15.8132L55.2279 15.7893ZM56.3158 17.6634C56.4064 17.6411 56.5239 17.5995 56.6008 17.5509L56.494 17.3818C56.4426 17.4142 56.3483 17.4495 56.268 17.4692L56.3158 17.6634ZM56.6424 17.435L56.4792 16.9397L56.2892 17.0023L56.4524 17.4976L56.6424 17.435ZM56.3259 16.8897C56.3225 16.8922 56.3096 16.8987 56.2893 16.9037L56.3372 17.0979C56.3713 17.0895 56.4109 17.0749 56.4425 17.0523L56.3259 16.8897ZM56.2893 16.9037C56.2684 16.9089 56.2568 16.9051 56.2517 16.9021C56.2475 16.8997 56.237 16.8918 56.2303 16.8647L56.0361 16.9126C56.0534 16.9826 56.0921 17.0408 56.1515 17.0752C56.2101 17.1091 56.2766 17.1128 56.3372 17.0979L56.2893 16.9037ZM56.2303 16.8647L55.9232 15.618L55.729 15.6658L56.0361 16.9126L56.2303 16.8647ZM55.8021 15.5448L55.204 15.6922L55.2519 15.8864L55.85 15.739L55.8021 15.5448ZM55.1308 15.8132L55.4686 17.1842L55.6628 17.1364L55.325 15.7653L55.1308 15.8132ZM55.4686 17.1842C55.5176 17.3831 55.6159 17.5361 55.7693 17.6216C55.9213 17.7063 56.1089 17.7144 56.3158 17.6634L56.268 17.4692C56.0905 17.513 55.9595 17.4987 55.8667 17.4469C55.7753 17.396 55.7028 17.2986 55.6628 17.1364L55.4686 17.1842Z" fill="#0B0C1F"/>
<path d="M61.7584 5.62126L63.9595 4.27661" stroke="#0E0E1C" stroke-width="0.5" stroke-linecap="round" stroke-linejoin="round"/>
<path d="M61.9055 0.55817L62.2767 0.0714111" stroke="#0E0E1C" stroke-linecap="round" stroke-linejoin="round"/>
<path d="M59.8956 3.19603L61.3987 1.22473" stroke="#0E0E1C" stroke-width="0.5" stroke-linecap="round" stroke-linejoin="round"/>
<path d="M57.252 2.36815L57.379 0.555298" stroke="#0E0E1C" stroke-width="0.5" stroke-linecap="round" stroke-linejoin="round"/>
<path d="M14.7954 4.39795C17.1393 5.16021 19.1177 6.73325 20.3996 8.78449" stroke="#0B0C1F" stroke-width="0.5" stroke-linecap="round" stroke-linejoin="round"/>
<path d="M11.5765 3.88977C11.9891 3.88977 12.3959 3.91404 12.7941 3.95972" stroke="#0B0C1F" stroke-width="0.5" stroke-linecap="round" stroke-linejoin="round"/>
</g>
<defs>
<clipPath id="clip0_910_1341">
<rect width="67" height="48.5046" fill="white"/>
</clipPath>
</defs>
</svg>
