<?xml version="1.0" encoding="UTF-8"?>
<svg width="18" height="18" viewBox="0 0 18 18" fill="none" xmlns="http://www.w3.org/2000/svg">
<title>gift_wrap</title>
<path d="M11.2 0.00012207C10.2428 0.00012207 9.39307 0.486295 8.8875 1.22514C8.41247 0.721935 7.74159 0.400082 6.99995 0.400082C5.57111 0.400082 4.39995 1.57125 4.39995 3.00009C4.39995 3.51487 4.55117 3.9949 4.81248 4.40003H0.600028C0.285857 4.40003 0 4.68588 0 5.00006V8.60002C0 8.91419 0.28585 9.20005 0.600028 9.20005H1.20006V17.4C1.20006 17.7141 1.48591 18 1.80009 18H16.1999C16.5141 18 16.7999 17.7141 16.7999 17.4V9.20005H17.4C17.7141 9.20005 18 8.9142 18 8.60002V5.00006C18 4.68589 17.7142 4.40003 17.4 4.40003H13.4936C13.8118 3.94579 13.9999 3.39322 13.9999 2.80002C13.9999 1.26068 12.7391 0.00012207 11.2 0.00012207V0.00012207ZM11.2 1.20018C12.0907 1.20018 12.8 1.90942 12.8 2.8002C12.8 3.69097 12.0907 4.40021 11.2 4.40021H9.59996V2.8002C9.59996 1.90946 10.3092 1.20018 11.2 1.20018V1.20018ZM7.00002 1.60014C7.7803 1.60014 8.39997 2.21985 8.39997 3.00009V4.40003H7.00002C6.21975 4.40003 5.60008 3.78033 5.60008 3.00009C5.60008 2.21985 6.21978 1.60014 7.00002 1.60014V1.60014ZM1.20009 5.60009H8.40001V8.00003H1.20009V5.60009ZM9.59999 5.60009H16.7999V8.00003H9.59999V5.60009ZM2.40008 9.20005H8.40001V16.8H2.40008V9.20005ZM9.59999 9.20005H15.5999V16.8H9.59999V9.20005Z" fill="#363636"/>
</svg>
