<svg width="21" height="20" viewBox="0 0 21 20" fill="none" xmlns="http://www.w3.org/2000/svg">
<path fill-rule="evenodd" clip-rule="evenodd" d="M7.21721 16.6342H13.8101C14.3496 16.6342 14.7869 17.0628 14.7869 17.5914C14.7869 18.1201 14.3496 18.5486 13.8101 18.5486H7.21721C6.67777 18.5486 6.24048 18.1201 6.24048 17.5914C6.24048 17.0628 6.67777 16.6342 7.21721 16.6342Z" fill="white" stroke="#2E6F2B" stroke-width="1.3"/>
<path d="M3.95836 3.87146H2.80876C1.80981 3.87146 1 4.66507 1 5.64404C1 6.75835 1.54158 7.80603 2.45835 8.46519L4.94448 10.2528" stroke="#2E6F2B" stroke-width="1.3" stroke-linecap="round" stroke-linejoin="round"/>
<path d="M17.1212 3.87146H18.2708C19.2698 3.87146 20.0796 4.66507 20.0796 5.64404C20.0796 6.75835 19.538 7.80603 18.6212 8.46519L16.1351 10.2528" stroke="#2E6F2B" stroke-width="1.3" stroke-linecap="round" stroke-linejoin="round"/>
<path d="M12.1953 11.5283H8.9082V16.6333H12.1953V11.5283Z" fill="white" stroke="#2E6F2B" stroke-width="1.3"/>
<path fill-rule="evenodd" clip-rule="evenodd" d="M4.26758 2.59442H16.7584V7.32211C16.7584 10.7024 13.9623 13.4426 10.513 13.4426C7.06376 13.4426 4.26758 10.7024 4.26758 7.32211V2.59442Z" fill="white" stroke="#2E6F2B" stroke-width="1.3"/>
<path d="M16.7584 1H4.26758V3.1271H16.7584V1Z" fill="white" stroke="#2E6F2B" stroke-width="1.3" stroke-linejoin="round"/>
<path fill-rule="evenodd" clip-rule="evenodd" d="M4.26758 3.12695H6.89723V12.1671C5.29275 11.4317 4.26758 9.85264 4.26758 8.11675V3.12695Z" stroke="#2E6F2B" stroke-width="1.3" stroke-linejoin="round"/>
<path d="M1.94727 19L19.9955 19" stroke="#2E6F2B" stroke-width="1.3" stroke-linecap="round" stroke-linejoin="round"/>
</svg>
