<svg width="67" height="13" viewBox="0 0 67 13" fill="none" xmlns="http://www.w3.org/2000/svg">
<path fill-rule="evenodd" clip-rule="evenodd" d="M4.02772 7.79385C3.69741 7.79385 3.383 7.65792 3.08533 7.41467C3.0498 7.38566 3.02965 7.34186 3.02965 7.29691V5.27776C3.02965 5.23239 3.05014 5.18818 3.08618 5.15917C3.38393 4.92003 3.69783 4.79569 4.02772 4.79569C4.82799 4.79569 5.10008 5.32197 5.10008 6.27878C5.10008 7.2356 4.82799 7.79385 4.02772 7.79385ZM5.18525 2.23785C4.22594 2.23785 3.5365 2.61473 3.02965 3.15818V2.82092C3.02965 2.64744 2.88413 2.50674 2.7047 2.50674H0.324955C0.14552 2.50674 0 2.64744 0 2.82092V12.6858C0 12.8593 0.14552 13 0.324955 13H2.7047C2.88413 13 3.02965 12.8593 3.02965 12.6858V9.47474C3.53667 10.0181 4.22594 10.395 5.18525 10.395C7.96092 10.395 8.28128 7.51452 8.28128 6.3027C8.28128 5.09096 7.96092 2.23785 5.18525 2.23785Z" fill="#32992C"/>
<path fill-rule="evenodd" clip-rule="evenodd" d="M14.4504 2.35527C14.3916 2.35059 14.3319 2.34796 14.2721 2.34796C14.1716 2.34796 13.0962 2.28476 12.0369 3.18455V2.91771C12.0369 2.74415 11.8914 2.60354 11.7119 2.60354H9.32539C9.14587 2.60354 9.00043 2.74415 9.00043 2.91771V9.92853C9.00043 10.102 9.14587 10.2427 9.32539 10.2427H11.7119C11.8914 10.2427 12.0369 10.102 12.0369 9.92853V6.05064C12.0369 5.48023 12.6908 5.14782 13.2837 5.14782C13.606 5.14782 14.0076 5.26665 14.3088 5.37595C14.5218 5.4532 14.749 5.30207 14.749 5.08216V2.66862C14.749 2.50928 14.6147 2.36834 14.4504 2.35527Z" fill="#32992C"/>
<path fill-rule="evenodd" clip-rule="evenodd" d="M20.7105 7.44174C20.3983 7.75073 19.9579 7.81557 19.6433 7.81557C19.0734 7.81557 18.7483 7.61226 18.5761 7.44174C18.3111 7.17942 18.171 6.78282 18.171 6.29476C18.171 5.80669 18.3111 5.41009 18.5761 5.14778C18.8882 4.83878 19.3287 4.77394 19.6433 4.77394C20.2132 4.77394 20.5382 4.97717 20.7105 5.14778C20.9755 5.41009 21.1156 5.80669 21.1156 6.29476C21.1156 6.78282 20.9755 7.17942 20.7105 7.44174ZM19.6433 2.21619C17.1376 2.21619 15.3295 3.91812 15.3295 6.29476C15.3295 8.67139 17.1376 10.3733 19.6433 10.3733C22.149 10.3733 23.9569 8.67139 23.9569 6.29476C23.9569 3.91812 22.149 2.21619 19.6433 2.21619Z" fill="#32992C"/>
<path d="M46.3429 0H43.965C43.7855 0 43.64 0.185479 43.64 0.414185V9.66407C43.64 9.89285 43.7855 10.0783 43.965 10.0783H46.3429C46.5224 10.0783 46.6679 9.89285 46.6679 9.66407V0.414185C46.6679 0.185479 46.5224 0 46.3429 0Z" fill="#32992C"/>
<path d="M33.4701 3.06204C33.5116 2.91313 33.4355 2.75748 33.2902 2.69396C32.8939 2.52056 32.0695 2.21847 31.1361 2.21847C28.8511 2.21847 27.6085 3.41944 27.6085 4.72182C27.6085 5.93813 28.8322 6.55177 29.5839 6.92874L29.6537 6.96376C29.7584 7.01645 29.8534 7.0637 29.9394 7.10651C30.572 7.42121 30.7228 7.49623 30.7419 7.7351C30.7627 7.99528 30.5118 8.0717 30.1384 8.0717C29.6397 8.0717 28.8124 7.7397 28.3561 7.53803C28.1801 7.46037 27.9735 7.54674 27.9123 7.72417L27.3748 9.2813C27.3248 9.42619 27.3895 9.58529 27.5288 9.65728C27.9889 9.89494 29.0617 10.3708 30.2752 10.3708C33.0826 10.3708 33.7856 8.95924 33.7856 7.96996C33.7856 6.57858 32.542 5.94868 31.7813 5.58281C31.7 5.54371 31.6156 5.5049 31.5314 5.46613C31.1093 5.27186 30.6894 5.07867 30.6646 4.85561C30.6336 4.57661 31.0611 4.50889 31.3043 4.50889C31.6725 4.50889 32.2666 4.67744 32.6332 4.79389C32.81 4.85002 32.9992 4.75066 33.0476 4.57694L33.4701 3.06204Z" fill="#32992C"/>
<path fill-rule="evenodd" clip-rule="evenodd" d="M34.281 6.2866C34.281 4.03554 36.0647 2.21847 38.6592 2.21847C41.0208 2.21847 42.8294 3.85869 42.8294 6.59206V6.87287C42.8294 7.04635 42.6839 7.18704 42.5045 7.18704H37.3744C37.5407 7.68546 38.1228 8.16785 39.1373 8.16785C39.6948 8.16785 40.2857 8.00662 40.7009 7.78079C40.8486 7.7005 41.0352 7.74446 41.1292 7.8808L42.0105 9.15902C42.1108 9.3044 42.0683 9.50039 41.9176 9.59679C41.0931 10.1244 39.83 10.3708 38.7548 10.3708C36.2435 10.3708 34.281 8.84321 34.281 6.2866ZM38.655 4.42145C37.7403 4.42145 37.4409 5.00024 37.3411 5.35403H39.9855C39.9024 5.01635 39.6196 4.42145 38.655 4.42145Z" fill="#32992C"/>
<path fill-rule="evenodd" clip-rule="evenodd" d="M51.6881 6.2866C51.6881 4.03554 53.4719 2.21847 56.0663 2.21847C58.4279 2.21847 60.2366 3.85869 60.2366 6.59206V6.87287C60.2366 7.04635 60.091 7.18704 59.9116 7.18704H54.7815C54.9478 7.68546 55.53 8.16785 56.5444 8.16785C57.1019 8.16785 57.6929 8.00662 58.108 7.78079C58.2556 7.7005 58.4423 7.74446 58.5363 7.8808L59.4177 9.15902C59.5179 9.3044 59.4755 9.50039 59.3248 9.59679C58.5002 10.1244 57.2372 10.3708 56.1619 10.3708C53.6506 10.3708 51.6881 8.84321 51.6881 6.2866ZM56.0621 4.42145C55.1475 4.42145 54.8481 5.00024 54.7483 5.35403H57.3926C57.3095 5.01635 57.0267 4.42145 56.0621 4.42145Z" fill="#32992C"/>
<path d="M66.4668 2.34792C66.5266 2.34792 66.5863 2.35055 66.6452 2.35523C66.8094 2.3683 66.9437 2.50924 66.9437 2.66858V5.08211C66.9437 5.30203 66.7165 5.45315 66.5035 5.37591C66.2023 5.26661 65.8007 5.14777 65.4784 5.14777C64.8855 5.14777 64.2316 5.48019 64.2316 6.0506V9.92849C64.2316 10.102 64.0861 10.2427 63.9066 10.2427H61.5201C61.3406 10.2427 61.1951 10.102 61.1951 9.92849V2.91767C61.1951 2.74411 61.3406 2.6035 61.5201 2.6035H63.9066C64.0861 2.6035 64.2316 2.74411 64.2316 2.91767V3.18451C65.2443 2.32431 66.2717 2.34422 66.448 2.34764L66.4668 2.34792Z" fill="#32992C"/>
<path d="M48.0252 0.000207916H50.4031C50.5826 0.000207916 50.7281 0.185687 50.7281 0.414393V9.66427C50.7281 9.89306 50.5826 10.0785 50.4031 10.0785H48.0252C47.8456 10.0785 47.7002 9.89306 47.7002 9.66427V0.414393C47.7002 0.185687 47.8456 0.000207916 48.0252 0.000207916Z" fill="#32992C"/>
</svg>
