<svg width="108" height="32" viewBox="0 0 108 32" fill="none" xmlns="http://www.w3.org/2000/svg">
<path d="M104 0H4C1.79086 0 0 1.79086 0 4V28C0 30.2091 1.79086 32 4 32H104C106.209 32 108 30.2091 108 28V4C108 1.79086 106.209 0 104 0Z" fill="black"/>
<path d="M104 0.64C104.891 0.64 105.746 0.993999 106.376 1.62412C107.006 2.25424 107.36 3.10887 107.36 4V28C107.36 28.8911 107.006 29.7458 106.376 30.3759C105.746 31.006 104.891 31.36 104 31.36H4C3.10887 31.36 2.25424 31.006 1.62412 30.3759C0.993999 29.7458 0.64 28.8911 0.64 28V4C0.64 3.10887 0.993999 2.25424 1.62412 1.62412C2.25424 0.993999 3.10887 0.64 4 0.64H104ZM104 0H4C2.93913 0 1.92172 0.421427 1.17157 1.17157C0.421427 1.92172 0 2.93913 0 4V28C0 29.0609 0.421427 30.0783 1.17157 30.8284C1.92172 31.5786 2.93913 32 4 32H104C105.061 32 106.078 31.5786 106.828 30.8284C107.579 30.0783 108 29.0609 108 28V4C108 2.93913 107.579 1.92172 106.828 1.17157C106.078 0.421427 105.061 0 104 0Z" fill="#A6A6A6"/>
<path d="M25.6903 15.4504C25.6682 12.9937 27.7019 11.7985 27.7949 11.7428C26.6431 10.0636 24.8579 9.83418 24.2306 9.81589C22.7313 9.65811 21.2769 10.7131 20.5131 10.7131C19.7341 10.7131 18.558 9.83114 17.2904 9.85705C15.6592 9.88221 14.1331 10.8266 13.2962 12.2932C11.569 15.2835 12.8571 19.6778 14.512 22.0949C15.3398 23.2787 16.3071 24.6004 17.5732 24.5539C18.8118 24.5028 19.2745 23.7642 20.7693 23.7642C22.2503 23.7642 22.6848 24.5539 23.976 24.5242C25.3054 24.5028 26.1423 23.3351 26.9412 22.1406C27.8978 20.7838 28.2819 19.4476 28.2972 19.379C28.2659 19.3683 25.7155 18.395 25.6903 15.4504Z" fill="white"/>
<path d="M23.2511 8.22583C23.9173 7.39269 24.3731 6.25924 24.2466 5.10901C23.2824 5.15169 22.0765 5.77597 21.3821 6.59081C20.7677 7.30885 20.2189 8.48575 20.3607 9.59253C21.4438 9.67333 22.556 9.046 23.2511 8.22583Z" fill="white"/>
<path d="M43.6158 24.3838H41.8848L40.9365 21.4042H37.6406L36.7373 24.3838H35.052L38.3175 14.2398H40.3344L43.6158 24.3838ZM40.6507 20.1541L39.7932 17.5053C39.7025 17.2347 39.5325 16.5975 39.2817 15.5943H39.2512C39.1514 16.0258 38.9905 16.663 38.7695 17.5053L37.9272 20.1541H40.6507Z" fill="white"/>
<path d="M52.0133 20.6366C52.0133 21.8806 51.6771 22.8639 51.0048 23.5857C50.4026 24.2283 49.6549 24.5492 48.7623 24.5492C47.7988 24.5492 47.1067 24.2031 46.6852 23.511H46.6547V27.3642H45.0296V19.4772C45.0296 18.6952 45.009 17.8925 44.9694 17.0693H46.3986L46.4893 18.2287H46.5198C47.0617 17.3551 47.8842 16.9191 48.9879 16.9191C49.8508 16.9191 50.5711 17.2599 51.1474 17.9421C51.7251 18.625 52.0133 19.523 52.0133 20.6366ZM50.3577 20.6961C50.3577 19.9841 50.1976 19.3972 49.8759 18.9353C49.5245 18.4535 49.0527 18.2127 48.4612 18.2127C48.0603 18.2127 47.6959 18.3468 47.3704 18.6113C47.0442 18.8781 46.8308 19.2264 46.7309 19.6579C46.6806 19.8591 46.6555 20.0238 46.6555 20.1533V21.3729C46.6555 21.905 46.8186 22.3539 47.1448 22.7206C47.4711 23.0872 47.8949 23.2702 48.4162 23.2702C49.0283 23.2702 49.5047 23.0339 49.8454 22.5628C50.1869 22.091 50.3577 21.469 50.3577 20.6961Z" fill="white"/>
<path d="M60.4264 20.6366C60.4264 21.8806 60.0902 22.8639 59.4172 23.5857C58.8157 24.2283 58.068 24.5492 57.1754 24.5492C56.2119 24.5492 55.5198 24.2031 55.099 23.511H55.0685V27.3642H53.4434V19.4772C53.4434 18.6952 53.4229 17.8925 53.3832 17.0693H54.8124L54.9031 18.2287H54.9336C55.4748 17.3551 56.2973 16.9191 57.4018 16.9191C58.2639 16.9191 58.9842 17.2599 59.562 17.9421C60.1375 18.625 60.4264 19.523 60.4264 20.6366ZM58.7708 20.6961C58.7708 19.9841 58.6099 19.3972 58.2883 18.9353C57.9369 18.4535 57.4666 18.2127 56.8743 18.2127C56.4726 18.2127 56.109 18.3468 55.7828 18.6113C55.4565 18.8781 55.2439 19.2264 55.144 19.6579C55.0945 19.8591 55.0685 20.0238 55.0685 20.1533V21.3729C55.0685 21.905 55.2317 22.3539 55.5564 22.7206C55.8826 23.0865 56.3064 23.2702 56.8293 23.2702C57.4414 23.2702 57.9178 23.0339 58.2586 22.5628C58.6 22.091 58.7708 21.469 58.7708 20.6961Z" fill="white"/>
<path d="M69.8325 21.5391C69.8325 22.402 69.533 23.104 68.9316 23.646C68.2707 24.2383 67.3507 24.534 66.1684 24.534C65.0769 24.534 64.2018 24.3236 63.5394 23.9021L63.916 22.5476C64.6294 22.979 65.4123 23.1955 66.2652 23.1955C66.8773 23.1955 67.3537 23.0568 67.696 22.7808C68.0367 22.5049 68.2067 22.1345 68.2067 21.6725C68.2067 21.2609 68.0664 20.9141 67.7851 20.6328C67.5054 20.3516 67.0381 20.0901 66.3857 19.8485C64.6096 19.1861 63.7224 18.2158 63.7224 16.9398C63.7224 16.1059 64.0334 15.4221 64.6561 14.8901C65.2766 14.3573 66.1044 14.0912 67.1395 14.0912C68.0626 14.0912 68.8294 14.2521 69.4415 14.573L69.0352 15.8978C68.4635 15.5868 67.8172 15.4313 67.0938 15.4313C66.5221 15.4313 66.0754 15.5723 65.7553 15.8528C65.4847 16.1036 65.349 16.4092 65.349 16.7713C65.349 17.1722 65.5037 17.5038 65.8147 17.7645C66.0853 18.0054 66.577 18.2661 67.2904 18.5473C68.1632 18.8987 68.8043 19.3096 69.2166 19.7806C69.6275 20.2502 69.8325 20.8379 69.8325 21.5391Z" fill="white"/>
<path d="M75.2055 18.2889H73.4142V21.8402C73.4142 22.7435 73.7298 23.1947 74.3625 23.1947C74.6529 23.1947 74.8937 23.1696 75.0843 23.1193L75.1293 24.3533C74.8091 24.473 74.3876 24.5332 73.8655 24.5332C73.2237 24.5332 72.7221 24.3373 72.36 23.9463C71.9995 23.5545 71.8181 22.8974 71.8181 21.9744V18.2874H70.7509V17.0678H71.8181V15.7285L73.4142 15.2468V17.0678H75.2055V18.2889Z" fill="white"/>
<path d="M83.2876 20.6664C83.2876 21.7907 82.9659 22.7138 82.3241 23.4357C81.6511 24.1788 80.7577 24.5493 79.6441 24.5493C78.5708 24.5493 77.7164 24.1933 77.0791 23.4814C76.4419 22.7695 76.1233 21.8708 76.1233 20.7876C76.1233 19.6542 76.451 18.7257 77.1089 18.0039C77.7651 17.2813 78.6509 16.92 79.7645 16.92C80.8378 16.92 81.7014 17.276 82.3531 17.9887C82.9766 18.68 83.2876 19.5726 83.2876 20.6664ZM81.6015 20.719C81.6015 20.0444 81.4575 19.4659 81.1655 18.9834C80.8248 18.3995 80.3377 18.1083 79.7066 18.1083C79.0533 18.1083 78.5571 18.4003 78.2164 18.9834C77.9245 19.4666 77.7804 20.0543 77.7804 20.7495C77.7804 21.4241 77.9245 22.0026 78.2164 22.4844C78.5678 23.0683 79.0587 23.3594 79.6921 23.3594C80.3126 23.3594 80.7996 23.0622 81.151 22.4691C81.4506 21.9775 81.6015 21.3928 81.6015 20.719Z" fill="white"/>
<path d="M88.5698 18.4985C88.409 18.4688 88.2375 18.4535 88.0576 18.4535C87.4859 18.4535 87.0438 18.6692 86.7328 19.1014C86.4622 19.4826 86.3266 19.9643 86.3266 20.5459V24.3838H84.7022L84.7175 19.3728C84.7175 18.5298 84.6969 17.7622 84.6565 17.0701H86.072L86.1314 18.4695H86.1764C86.3479 17.9886 86.6185 17.6013 86.9889 17.3109C87.351 17.0495 87.742 16.9191 88.1636 16.9191C88.3137 16.9191 88.4494 16.9298 88.5698 16.9489V18.4985Z" fill="white"/>
<path d="M95.8379 20.3805C95.8379 20.6717 95.8188 20.9172 95.7784 21.1176H90.9031C90.9222 21.8402 91.1577 22.3929 91.6105 22.774C92.0213 23.1147 92.5526 23.2854 93.2051 23.2854C93.9269 23.2854 94.5855 23.1703 95.1778 22.9394L95.4324 24.0675C94.7402 24.3694 93.9231 24.5195 92.9802 24.5195C91.846 24.5195 90.9557 24.1857 90.3078 23.5187C89.6614 22.8517 89.3374 21.9561 89.3374 20.8325C89.3374 19.7296 89.6385 18.8111 90.2415 18.0786C90.8726 17.2965 91.7256 16.9055 92.7988 16.9055C93.853 16.9055 94.6511 17.2965 95.193 18.0786C95.6222 18.6998 95.8379 19.4681 95.8379 20.3805ZM94.2882 19.959C94.2989 19.4773 94.193 19.0611 93.9727 18.7097C93.6914 18.2577 93.2592 18.0321 92.6776 18.0321C92.1463 18.0321 91.7141 18.2523 91.3841 18.6944C91.1135 19.0458 90.9526 19.4674 90.9031 19.9582H94.2882V19.959Z" fill="white"/>
<path d="M40.1136 7.99945C40.1136 8.89661 39.8445 9.57196 39.3071 10.0255C38.8094 10.444 38.102 10.6536 37.1858 10.6536C36.7315 10.6536 36.3427 10.6338 36.0173 10.5941V5.69214C36.4418 5.62353 36.8992 5.58847 37.3931 5.58847C38.2659 5.58847 38.9237 5.77827 39.3673 6.15787C39.8643 6.58701 40.1136 7.20062 40.1136 7.99945ZM39.2713 8.02156C39.2713 7.43996 39.1173 6.99405 38.8094 6.68305C38.5014 6.37282 38.0517 6.21732 37.4594 6.21732C37.2079 6.21732 36.9937 6.23409 36.8161 6.26915V9.99577C36.9144 10.011 37.0943 10.0179 37.3558 10.0179C37.9671 10.0179 38.4389 9.84789 38.7713 9.50793C39.1036 9.16797 39.2713 8.67251 39.2713 8.02156Z" fill="white"/>
<path d="M44.5796 8.78302C44.5796 9.33565 44.4218 9.78842 44.1062 10.1436C43.7754 10.5087 43.3371 10.6909 42.7898 10.6909C42.2624 10.6909 41.8424 10.5164 41.5291 10.1657C41.2166 9.81586 41.0603 9.37452 41.0603 8.84248C41.0603 8.28604 41.2211 7.82945 41.5443 7.47501C41.8675 7.12057 42.302 6.94296 42.8493 6.94296C43.3768 6.94296 43.8006 7.11752 44.1215 7.46739C44.4264 7.80735 44.5796 8.2464 44.5796 8.78302ZM43.751 8.80894C43.751 8.47736 43.6794 8.19304 43.5368 7.95599C43.3691 7.66938 43.1306 7.52608 42.8203 7.52608C42.4994 7.52608 42.2555 7.66938 42.0878 7.95599C41.9445 8.19304 41.8736 8.48194 41.8736 8.82342C41.8736 9.155 41.9453 9.43932 42.0878 9.67637C42.2608 9.96298 42.5017 10.1063 42.8127 10.1063C43.1176 10.1063 43.3569 9.96069 43.5292 9.66875C43.6771 9.42712 43.751 9.14052 43.751 8.80894Z" fill="white"/>
<path d="M50.5678 7.01611L49.4435 10.6093H48.7118L48.246 9.04902C48.1279 8.65951 48.0318 8.27229 47.9571 7.88812H47.9427C47.8733 8.28297 47.7772 8.66942 47.6538 9.04902L47.1591 10.6093H46.4189L45.3617 7.01611H46.1826L46.5889 8.72431C46.6872 9.1283 46.768 9.51323 46.8328 9.87758H46.8473C46.9068 9.57726 47.0051 9.19461 47.1438 8.73193L47.6538 7.01688H48.3047L48.7933 8.69534C48.9115 9.10467 49.0075 9.49875 49.0814 9.87834H49.1036C49.1577 9.50866 49.2392 9.11457 49.3475 8.69534L49.7835 7.01688H50.5678V7.01611Z" fill="white"/>
<path d="M54.709 10.6093H53.9102V8.55127C53.9102 7.91708 53.6693 7.59999 53.186 7.59999C52.949 7.59999 52.7577 7.68688 52.609 7.86144C52.4619 8.03599 52.3872 8.2418 52.3872 8.47733V10.6086H51.5884V8.04285C51.5884 7.72728 51.5785 7.38503 51.5594 7.01458H52.2614L52.2988 7.57636H52.3209C52.4139 7.4018 52.5526 7.25774 52.7348 7.14264C52.9513 7.00848 53.1937 6.94064 53.4589 6.94064C53.7943 6.94064 54.0733 7.04888 54.2951 7.26612C54.571 7.53215 54.709 7.92928 54.709 8.45675V10.6093Z" fill="white"/>
<path d="M56.9118 10.6094H56.1138V5.3674H56.9118V10.6094Z" fill="white"/>
<path d="M61.615 8.78302C61.615 9.33565 61.4572 9.78842 61.1417 10.1436C60.8109 10.5087 60.3718 10.6909 59.8253 10.6909C59.297 10.6909 58.877 10.5164 58.5645 10.1657C58.252 9.81586 58.0957 9.37452 58.0957 8.84248C58.0957 8.28604 58.2566 7.82945 58.5798 7.47501C58.903 7.12057 59.3374 6.94296 59.884 6.94296C60.4122 6.94296 60.8352 7.11752 61.1569 7.46739C61.4618 7.80735 61.615 8.2464 61.615 8.78302ZM60.7857 8.80894C60.7857 8.47736 60.714 8.19304 60.5715 7.95599C60.4046 7.66938 60.1652 7.52608 59.8558 7.52608C59.5341 7.52608 59.2902 7.66938 59.1232 7.95599C58.9799 8.19304 58.9091 8.48194 58.9091 8.82342C58.9091 9.155 58.9807 9.43932 59.1232 9.67637C59.2963 9.96298 59.5371 10.1063 59.8481 10.1063C60.153 10.1063 60.3916 9.96069 60.5639 9.66875C60.7125 9.42712 60.7857 9.14052 60.7857 8.80894Z" fill="white"/>
<path d="M65.481 10.6094H64.7637L64.7043 10.1955H64.6822C64.4367 10.5255 64.0869 10.6909 63.6326 10.6909C63.2934 10.6909 63.019 10.5819 62.8124 10.3654C62.6249 10.1688 62.5311 9.9241 62.5311 9.63369C62.5311 9.19463 62.7141 8.86001 63.0822 8.62829C63.4496 8.39656 63.9664 8.28299 64.6319 8.28832V8.22125C64.6319 7.74789 64.3834 7.5116 63.8856 7.5116C63.5312 7.5116 63.2187 7.60078 62.9488 7.77762L62.7865 7.2532C63.1203 7.04663 63.5327 6.94296 64.019 6.94296C64.9581 6.94296 65.4292 7.43842 65.4292 8.42934V9.7526C65.4292 10.1116 65.4467 10.3975 65.481 10.6094ZM64.6517 9.37452V8.82037C63.7705 8.80513 63.33 9.04676 63.33 9.54451C63.33 9.73202 63.3803 9.87227 63.4832 9.96603C63.5861 10.0598 63.7172 10.1063 63.8734 10.1063C64.0488 10.1063 64.2126 10.0506 64.362 9.94011C64.5122 9.82882 64.6044 9.68781 64.6387 9.51478C64.6471 9.4759 64.6517 9.42864 64.6517 9.37452Z" fill="white"/>
<path d="M70.02 10.6094H69.3111L69.2738 10.0323H69.2517C69.0253 10.4714 68.6396 10.6909 68.0977 10.6909C67.6647 10.6909 67.3042 10.5209 67.0183 10.181C66.7325 9.84102 66.5899 9.39968 66.5899 8.85772C66.5899 8.27613 66.7447 7.80506 67.0557 7.44528C67.3568 7.10989 67.7257 6.9422 68.1647 6.9422C68.6472 6.9422 68.9849 7.10456 69.177 7.43004H69.1922V5.3674H69.9918V9.64131C69.9918 9.99118 70.001 10.3136 70.02 10.6094ZM69.1922 9.09402V8.49489C69.1922 8.39123 69.1846 8.30738 69.1701 8.24335C69.1252 8.05127 69.0284 7.88967 68.8812 7.75933C68.7326 7.62898 68.5535 7.56343 68.3469 7.56343C68.0489 7.56343 67.8156 7.68158 67.6441 7.91864C67.4741 8.15569 67.388 8.4583 67.388 8.82799C67.388 9.1832 67.4696 9.47133 67.6334 9.69314C67.8065 9.92944 68.0397 10.0476 68.3317 10.0476C68.5939 10.0476 68.8035 9.94926 68.9628 9.75183C69.1168 9.56966 69.1922 9.35013 69.1922 9.09402Z" fill="white"/>
<path d="M76.8522 8.78302C76.8522 9.33565 76.6945 9.78842 76.3789 10.1436C76.0481 10.5087 75.6106 10.6909 75.0625 10.6909C74.5358 10.6909 74.1158 10.5164 73.8017 10.1657C73.4892 9.81586 73.333 9.37452 73.333 8.84248C73.333 8.28604 73.4938 7.82945 73.817 7.47501C74.1402 7.12057 74.5747 6.94296 75.1227 6.94296C75.6494 6.94296 76.074 7.11752 76.3941 7.46739C76.699 7.80735 76.8522 8.2464 76.8522 8.78302ZM76.0245 8.80894C76.0245 8.47736 75.9528 8.19304 75.8103 7.95599C75.6418 7.66938 75.404 7.52608 75.093 7.52608C74.7728 7.52608 74.5289 7.66938 74.3605 7.95599C74.2172 8.19304 74.1463 8.48194 74.1463 8.82342C74.1463 9.155 74.2179 9.43932 74.3605 9.67637C74.5335 9.96298 74.7744 10.1063 75.0854 10.1063C75.3903 10.1063 75.6304 9.96069 75.8026 9.66875C75.9498 9.42712 76.0245 9.14052 76.0245 8.80894Z" fill="white"/>
<path d="M81.1473 10.6093H80.3493V8.55127C80.3493 7.91708 80.1084 7.59999 79.6244 7.59999C79.3873 7.59999 79.196 7.68688 79.0481 7.86144C78.9002 8.03599 78.8263 8.2418 78.8263 8.47733V10.6086H78.0267V8.04285C78.0267 7.72728 78.0176 7.38503 77.9985 7.01458H78.6998L78.7371 7.57636H78.7592C78.853 7.4018 78.9917 7.25774 79.1731 7.14264C79.3904 7.00848 79.632 6.94064 79.898 6.94064C80.2327 6.94064 80.5116 7.04888 80.7334 7.26612C81.0101 7.53215 81.1473 7.92928 81.1473 8.45675V10.6093Z" fill="white"/>
<path d="M86.5234 7.61448H85.6438V9.36003C85.6438 9.80365 85.8 10.0255 86.1095 10.0255C86.2528 10.0255 86.3717 10.0133 86.4655 9.98812L86.4861 10.5941C86.3283 10.6536 86.121 10.6833 85.8656 10.6833C85.55 10.6833 85.3046 10.5872 85.127 10.3952C84.9486 10.2031 84.8602 9.87988 84.8602 9.42634V7.61448H84.335V7.01612H84.8602V6.35754L85.643 6.12125V7.01536H86.5227V7.61448H86.5234Z" fill="white"/>
<path d="M90.7526 10.6094H89.953V8.56654C89.953 7.92245 89.7121 7.60002 89.2296 7.60002C88.8592 7.60002 88.6061 7.78677 88.4674 8.16027C88.4437 8.23878 88.43 8.33482 88.43 8.44763V10.6086H87.6319V5.3674H88.43V7.53294H88.4453C88.6968 7.13886 89.0573 6.9422 89.5246 6.9422C89.8554 6.9422 90.1291 7.05044 90.3463 7.26768C90.6169 7.53827 90.7526 7.94074 90.7526 8.47279V10.6094Z" fill="white"/>
<path d="M95.115 8.64276C95.115 8.78606 95.1043 8.9065 95.0852 9.00483H92.6895C92.7002 9.36004 92.8145 9.63063 93.0363 9.81815C93.2391 9.98584 93.5005 10.0697 93.8207 10.0697C94.1751 10.0697 94.4983 10.0133 94.7895 9.89971L94.9145 10.4546C94.5738 10.6025 94.1728 10.6764 93.7086 10.6764C93.1522 10.6764 92.7139 10.5126 92.3968 10.1848C92.0782 9.85702 91.9204 9.4172 91.9204 8.86534C91.9204 8.32338 92.0675 7.87213 92.364 7.51235C92.6735 7.12818 93.092 6.9361 93.6202 6.9361C94.137 6.9361 94.5296 7.12818 94.7948 7.51235C95.009 7.81725 95.115 8.19456 95.115 8.64276ZM94.3527 8.43619C94.3588 8.19914 94.3062 7.99486 94.198 7.82259C94.0592 7.60077 93.8481 7.48949 93.5623 7.48949C93.3016 7.48949 93.0889 7.59773 92.9266 7.81496C92.7939 7.98799 92.7154 8.19456 92.6895 8.43619H94.3527Z" fill="white"/>
</svg>
