<svg width="2156" height="485" viewBox="0 0 2156 485" fill="none" xmlns="http://www.w3.org/2000/svg">
<g clip-path="url(#clip0_43_3)">
<mask id="mask0_43_3" style="mask-type:luminance" maskUnits="userSpaceOnUse" x="0" y="0" width="2156" height="485">
<path d="M2156 0H0V485H2156V0Z" fill="white"/>
</mask>
<g mask="url(#mask0_43_3)">
<path d="M253.731 181.213C253.731 181.213 186.922 123.988 182.658 121.868C178.393 119.749 115.494 105.972 115.494 105.972C115.494 105.972 92.0396 109.151 92.0396 114.803C92.0396 120.455 172.707 278.001 172.707 284.359C176.092 314.437 181.314 344.282 188.343 373.729C191.897 376.908 218.905 409.053 218.905 409.053L234.186 427.775C257.363 434.709 282.081 434.709 305.259 427.775C334.399 415.058 344.704 339.818 344.704 339.818C344.704 339.818 380.241 224.308 380.241 221.129C380.241 217.95 403.695 129.993 403.695 129.993L393.034 77.7129C371.01 88.495 350.169 101.517 330.845 116.57C306.256 139.399 280.518 160.975 253.731 181.213Z" fill="white"/>
<path d="M262.615 485C198.079 486.04 135.762 461.598 89.3295 417.032C42.8973 372.467 16.14 311.416 14.9253 247.269C15.5259 215.414 22.44 183.99 35.2719 154.795C48.1037 125.6 66.6015 99.2065 89.7066 77.1254C112.812 55.0443 140.071 37.7089 169.923 26.1114C199.776 14.5139 231.636 8.88187 263.681 9.53767C328.373 8.30749 390.91 32.655 437.553 77.2309C484.196 121.807 511.13 182.965 512.436 247.269C511.13 311.573 484.196 372.731 437.553 417.307C390.91 461.883 328.373 486.23 263.681 485M263.681 65.3497C239.12 64.7873 214.69 69.0521 191.792 77.8993C168.894 86.7466 147.979 100.002 130.248 116.905C112.517 133.808 98.3192 154.025 88.4692 176.397C78.6193 198.768 73.3112 222.853 72.8498 247.269C73.7839 296.394 94.292 343.143 129.871 377.252C165.451 411.36 213.193 430.039 262.615 429.188C312.071 430.04 359.85 411.372 395.486 377.273C431.122 343.175 451.708 296.426 452.735 247.269C451.708 198.112 431.122 151.363 395.486 117.264C359.85 83.166 312.071 64.4979 262.615 65.3497" fill="#52AC62"/>
<path d="M271.854 121.515C241.736 102.477 209.079 87.7328 174.84 77.7132C132.196 64.9965 75.6929 56.5187 17.0576 44.8618C17.0576 44.8618 90.2628 92.1961 77.1143 235.965C65.3873 362.072 133.617 422.476 257.284 430.248C257.284 430.248 168.798 357.127 179.104 276.941C184.435 236.672 203.624 219.716 196.162 195.342C188.699 170.969 157.782 147.301 108.386 116.57C148.44 131.579 184.793 154.947 214.996 185.098C231.631 162.068 250.561 140.766 271.499 121.515" fill="#52AC62"/>
<path d="M253.375 420.357C253.375 420.357 -5.33054 238.791 453.801 5.65186C437.346 56.6397 433.806 110.877 443.496 163.551C466.239 235.612 497.511 423.889 279.317 423.889C279.317 423.889 221.037 292.13 382.017 120.455C382.017 120.455 224.946 204.527 253.375 421.77" fill="#7BB85E"/>
<path d="M256.929 427.775C183.013 421.063 132.907 400.575 103.411 365.605C89.5515 347.234 79.7849 326.14 74.7606 303.727C69.7363 281.314 69.5695 258.094 74.2713 235.612C92.0396 91.1363 16.3468 47.6877 15.6361 47.3344L0 38.5034L32.6936 44.8617C84.9323 55.459 126.155 63.2303 165.245 75.2405C203.136 87.1818 239.98 102.186 275.408 120.102L272.565 125.047C237.494 106.987 200.863 92.0911 163.113 80.5391C119.817 68.3512 75.9334 58.3301 31.6275 50.5136H29.1399C50.1065 68.1756 94.1718 121.162 79.9571 236.672C75.2663 258.261 75.2156 280.592 79.8086 302.202C84.4016 323.812 93.5345 344.214 106.61 362.072C135.039 397.396 183.724 415.765 255.863 422.123L256.929 427.775Z" fill="white"/>
<path d="M252.309 426.009C228.804 408.805 209.77 386.272 196.79 360.283C183.81 334.294 177.259 305.6 177.683 276.588C184.79 183.685 277.185 91.8427 451.314 3.17917L458.776 0L456.644 6.35834C440.353 56.7699 436.814 110.396 446.339 162.491C458.776 202.407 481.875 303.787 432.124 366.664C401.918 405.521 350.035 423.889 277.54 423.889V418.237C348.613 418.237 398.364 399.516 427.504 362.072C476.189 299.195 453.091 201.701 440.653 162.844C430.826 112.408 433.756 60.3354 449.182 11.3037C280.739 97.8478 191.542 187.218 184.435 276.941C184.103 304.918 190.356 332.585 202.697 357.732C215.037 382.878 233.122 404.808 255.508 421.77L252.309 426.009Z" fill="white"/>
<path d="M604.121 374.082V347.942H614.782C620.823 347.942 624.021 344.057 624.021 338.758V188.984H605.897V160.725H694.028C721.018 159.159 747.551 168.162 767.944 185.805C777.233 195.701 784.365 207.398 788.89 220.164C793.415 232.929 795.237 246.487 794.241 259.985C794.628 277.957 791.985 295.867 786.423 312.972C781.902 326.271 774.363 338.357 764.39 348.296C745.673 365.501 720.934 374.754 695.449 374.082H604.121ZM663.467 191.81V343.35H696.16C704.436 343.732 712.679 342.098 720.174 338.588C727.668 335.079 734.186 329.801 739.159 323.216C750.797 306.344 756.312 286.038 754.795 265.637C754.795 216.537 733.829 191.81 691.896 191.81H663.467ZM992.179 348.649V374.082H938.164V353.241C932.279 361.426 924.397 367.99 915.259 372.315C906.121 376.641 896.027 378.586 885.925 377.968C852.876 377.968 836.174 359.599 836.174 322.862V247.269C836.174 241.264 833.686 238.438 828.001 238.084H817.34V211.945H873.843V314.385C873.401 323.252 875.107 332.095 878.818 340.171C881.017 343.28 884.044 345.719 887.558 347.217C891.072 348.714 894.937 349.21 898.718 348.649C903.336 348.96 907.969 348.303 912.315 346.721C916.662 345.139 920.625 342.666 923.949 339.465C929.546 333.658 932.72 325.958 932.833 317.917V249.388C933.018 246.793 932.398 244.204 931.057 241.97C930.126 241.066 929.008 240.376 927.779 239.948C926.551 239.521 925.244 239.367 923.949 239.497H913.644V211.945H970.502V338.405C970.502 341.937 970.502 344.057 970.502 345.117C971.35 345.93 972.352 346.567 973.45 346.992C974.549 347.416 975.721 347.619 976.899 347.589L992.179 348.649ZM1007.1 293.19C1006.84 279.092 1009.25 265.072 1014.21 251.861C1017.26 241.77 1022.89 232.641 1030.56 225.368C1045.02 213.97 1062.92 207.748 1081.38 207.706C1092.61 207.421 1103.77 209.591 1114.07 214.064C1121.79 217.575 1128.78 222.487 1134.68 228.547C1140.68 235.433 1145.16 243.496 1147.83 252.214C1151.44 263.642 1153.24 275.56 1153.16 287.538C1154.86 311.845 1147.1 335.872 1131.48 354.654C1124.49 362.161 1115.95 368.07 1106.44 371.973C1096.93 375.877 1086.68 377.681 1076.4 377.261C1066.57 377.814 1056.74 376.164 1047.64 372.435C1038.53 368.705 1030.39 362.991 1023.81 355.714C1009.76 337.453 1002.93 314.705 1004.62 291.777M1060.41 344.057C1065.73 347.704 1072.08 349.561 1078.53 349.355C1101.99 349.355 1114.07 330.28 1114.07 292.837C1114.94 277.944 1112.27 263.056 1106.25 249.388C1103.78 244.65 1099.99 240.726 1095.32 238.092C1090.65 235.458 1085.31 234.229 1079.95 234.552C1074.54 234.247 1069.14 235.398 1064.32 237.885C1059.51 240.371 1055.46 244.101 1052.59 248.682C1046.34 260.529 1043.39 273.824 1044.06 287.185C1044.06 317.564 1049.39 336.286 1060.76 344.057M1178.04 238.084V211.945H1232.41V232.786C1238.1 224.851 1245.67 218.423 1254.44 214.064C1263.81 209.373 1274.16 206.952 1284.64 206.999C1291.56 206.659 1298.48 207.737 1304.96 210.168C1311.44 212.599 1317.35 216.33 1322.31 221.129C1331.97 232.803 1336.68 247.748 1335.46 262.811V347.236H1353.94V373.023H1279.31V349.709H1289.62C1292.23 349.557 1294.73 348.566 1296.73 346.883C1297.72 345.865 1298.45 344.635 1298.89 343.287C1299.32 341.939 1299.43 340.51 1299.21 339.111V271.996C1299.21 263.257 1296.74 254.694 1292.11 247.269C1289.72 244.188 1286.56 241.784 1282.94 240.297C1279.32 238.809 1275.38 238.29 1271.5 238.791C1267.09 238.405 1262.66 238.962 1258.49 240.424C1254.32 241.886 1250.52 244.221 1247.33 247.269C1241.33 253.413 1238.01 261.665 1238.09 270.229V347.236H1256.57V373.023H1179.81V349.709H1190.47C1193.09 349.557 1195.58 348.566 1197.58 346.883C1199.29 344.672 1200.06 341.88 1199.71 339.111V249.388C1199.71 242.677 1197.22 239.497 1191.89 239.144L1178.04 238.084ZM1462.33 207.353C1481.93 207.688 1501.3 211.516 1519.54 218.656V338.405C1519.33 340.89 1519.96 343.374 1521.32 345.47C1522.16 346.275 1523.17 346.883 1524.27 347.25C1525.38 347.617 1526.56 347.733 1527.71 347.589H1538.02V373.376H1488.27V354.654C1483.57 361.964 1477.03 367.928 1469.31 371.955C1461.58 375.982 1452.92 377.933 1444.2 377.615C1434.99 378.363 1425.74 376.855 1417.25 373.221C1408.76 369.588 1401.3 363.94 1395.52 356.774C1383.98 340.212 1378.12 320.39 1378.82 300.255C1377.34 275.708 1384.92 251.468 1400.14 232.079C1408.26 223.588 1418.19 216.996 1429.19 212.781C1440.19 208.566 1451.99 206.832 1463.75 207.706M1483.65 322.862V239.851C1475.76 236.67 1467.28 235.224 1458.77 235.612C1452.49 235.489 1446.28 237.026 1440.79 240.067C1435.29 243.108 1430.71 247.543 1427.5 252.921C1420.51 267.195 1417.21 282.98 1417.91 298.842C1417.91 334.166 1429.28 350.768 1453.44 350.768C1461.96 351.043 1470.25 348.001 1476.54 342.291C1479.33 339.87 1481.57 336.884 1483.1 333.533C1484.63 330.182 1485.43 326.543 1485.43 322.862M1588.84 178.74H1609.8V211.945H1652.45L1649.25 238.791H1608.03V323.922C1607.4 330.884 1609.15 337.853 1613 343.704C1615.11 345.72 1617.63 347.267 1620.39 348.242C1623.14 349.216 1626.08 349.596 1628.99 349.355C1636.73 349.321 1644.28 346.983 1650.67 342.644L1660.62 367.371C1648.43 375.062 1634.18 378.881 1619.75 378.321C1611.43 378.625 1603.13 377.428 1595.23 374.789C1589.81 373 1584.75 370.248 1580.31 366.664C1576.78 362.98 1574.22 358.492 1572.85 353.594C1571.49 349.096 1570.54 344.485 1570 339.818C1570 336.639 1570 331.693 1570 325.335V239.497H1547.26L1550.46 216.184C1554.79 216.142 1559.07 215.175 1562.99 213.346C1566.91 211.518 1570.4 208.871 1573.2 205.586C1579.37 197.459 1584.17 188.393 1587.42 178.74M1843.63 348.649V374.082H1791.04V353.241C1785.16 361.426 1777.27 367.99 1768.14 372.315C1759 376.641 1748.9 378.586 1738.8 377.968C1705.75 377.968 1689.05 359.599 1689.05 322.862V247.269C1689.27 246.106 1689.22 244.91 1688.9 243.77C1688.58 242.63 1688.01 241.577 1687.22 240.692C1686.43 239.806 1685.45 239.111 1684.35 238.659C1683.25 238.207 1682.06 238.011 1680.88 238.084H1670.22V211.945H1727.07V314.385C1726.55 323.222 1728.13 332.058 1731.69 340.171C1733.92 343.25 1736.95 345.667 1740.46 347.161C1743.96 348.655 1747.82 349.169 1751.59 348.649C1756.21 348.938 1760.84 348.271 1765.18 346.69C1769.52 345.109 1773.49 342.648 1776.83 339.465C1782.42 333.658 1785.6 325.958 1785.71 317.917V249.388C1786 246.734 1785.23 244.072 1783.58 241.97C1782.69 241.113 1781.63 240.45 1780.46 240.024C1779.3 239.598 1778.06 239.419 1776.83 239.497H1766.52V211.945H1823.02V338.405C1822.2 340.568 1822.2 342.953 1823.02 345.117C1823.87 345.93 1824.87 346.567 1825.97 346.992C1827.07 347.416 1828.24 347.619 1829.42 347.589L1843.63 348.649ZM1889.12 338.052V249.388C1890.02 246.996 1890.02 244.362 1889.12 241.97C1887.5 240.413 1885.34 239.529 1883.08 239.497H1869.22V211.945H1923.95V236.672C1927.7 228.247 1933.89 221.118 1941.71 216.184C1950.07 210.485 1960.01 207.521 1970.14 207.706C1980.61 207.82 1990.93 210.233 2000.35 214.771V262.811L1970.5 264.931V250.095C1970.5 245.856 1970.5 243.383 1967.3 242.323C1964.49 241.129 1961.47 240.528 1958.42 240.557C1954.46 240.467 1950.53 241.243 1946.91 242.83C1943.28 244.417 1940.05 246.776 1937.45 249.741C1931.99 256.283 1929.09 264.56 1929.28 273.055V347.236H1957.35V372.669H1868.87V349.709H1879.53C1882.14 349.557 1884.63 348.566 1886.63 346.883C1888.35 344.672 1889.11 341.88 1888.77 339.111M2101.98 208.765C2115.8 208.174 2129.38 212.425 2140.36 220.776C2145.08 224.827 2148.8 229.889 2151.27 235.579C2153.73 241.269 2154.86 247.439 2154.58 253.627C2154.75 262.294 2152.54 270.843 2148.18 278.354C2144.59 285.072 2139.48 290.874 2133.26 295.31C2126.43 299.643 2119.01 302.974 2111.22 305.2C2095.39 309.648 2078.99 311.789 2062.54 311.559C2062.78 321.692 2066.55 331.43 2073.2 339.111C2077.2 342.771 2081.91 345.57 2087.05 347.332C2092.19 349.095 2097.63 349.784 2103.05 349.355C2117.5 349.001 2131.45 344.048 2142.85 335.226L2154.93 361.366C2148.45 366.476 2141.11 370.421 2133.26 373.023C2121.95 377.427 2109.85 379.471 2097.72 379.028C2087.11 379.952 2076.43 378.495 2066.47 374.766C2056.5 371.036 2047.51 365.129 2040.15 357.48C2027.13 340.488 2020.59 319.465 2021.67 298.135C2020.96 275.155 2028.38 252.653 2042.64 234.552C2049.7 225.988 2058.68 219.192 2068.86 214.713C2079.05 210.234 2090.15 208.196 2101.27 208.765M2061.12 282.593C2070.23 283.25 2079.37 283.25 2088.48 282.593C2096.28 281.1 2103.67 277.969 2110.16 273.409C2113.14 271.58 2115.61 269.037 2117.35 266.013C2119.09 262.99 2120.04 259.582 2120.11 256.1C2120.52 253.486 2120.31 250.812 2119.5 248.292C2118.69 245.772 2117.29 243.476 2115.43 241.588C2113.56 239.7 2111.28 238.272 2108.76 237.418C2106.24 236.564 2103.56 236.309 2100.92 236.672C2095.46 236.414 2090.03 237.582 2085.16 240.061C2080.3 242.541 2076.18 246.244 2073.2 250.801C2066.48 260.185 2062.32 271.137 2061.12 282.593Z" fill="black"/>
</g>
</g>
<defs>
<clipPath id="clip0_43_3">
<rect width="2156" height="485" fill="white"/>
</clipPath>
</defs>
</svg>
