<svg width="108" height="32" viewBox="0 0 108 32" fill="none" xmlns="http://www.w3.org/2000/svg">
<path d="M104 0H4C1.79086 0 0 1.79086 0 4V28C0 30.2091 1.79086 32 4 32H104C106.209 32 108 30.2091 108 28V4C108 1.79086 106.209 0 104 0Z" fill="black"/>
<path d="M104 0.64C104.891 0.64 105.746 0.993999 106.376 1.62412C107.006 2.25424 107.36 3.10887 107.36 4V28C107.36 28.8911 107.006 29.7458 106.376 30.3759C105.746 31.006 104.891 31.36 104 31.36H4C3.10887 31.36 2.25424 31.006 1.62412 30.3759C0.993999 29.7458 0.64 28.8911 0.64 28V4C0.64 3.10887 0.993999 2.25424 1.62412 1.62412C2.25424 0.993999 3.10887 0.64 4 0.64H104ZM104 0H4C2.93913 0 1.92172 0.421427 1.17157 1.17157C0.421427 1.92172 0 2.93913 0 4V28C0 29.0609 0.421427 30.0783 1.17157 30.8284C1.92172 31.5786 2.93913 32 4 32H104C105.061 32 106.078 31.5786 106.828 30.8284C107.579 30.0783 108 29.0609 108 28V4C108 2.93913 107.579 1.92172 106.828 1.17157C106.078 0.421427 105.061 0 104 0Z" fill="#A6A6A6"/>
<path d="M54.5121 17.4C53.8403 17.4031 53.1845 17.6052 52.6275 17.9807C52.0705 18.3563 51.6372 18.8884 51.3823 19.5099C51.1274 20.1314 51.0624 20.8146 51.1954 21.473C51.3284 22.1315 51.6534 22.7358 52.1296 23.2097C52.6057 23.6836 53.2115 24.0059 53.8706 24.1358C54.5297 24.2657 55.2125 24.1974 55.8329 23.9396C56.4532 23.6818 56.9833 23.246 57.3562 22.6872C57.7291 22.1285 57.9281 21.4718 57.9281 20.8C57.9346 20.3503 57.8506 19.904 57.681 19.4875C57.5114 19.0709 57.2598 18.6928 56.9411 18.3756C56.6223 18.0583 56.243 17.8085 55.8257 17.6409C55.4084 17.4733 54.9617 17.3913 54.5121 17.4ZM54.5121 22.864C54.0989 22.8929 53.6867 22.7968 53.3288 22.5883C52.971 22.3798 52.6842 22.0684 52.5057 21.6947C52.3272 21.321 52.2652 20.9023 52.3278 20.4929C52.3904 20.0835 52.5748 19.7024 52.8568 19.3992C53.1389 19.096 53.5057 18.8846 53.9095 18.7926C54.3133 18.7006 54.7354 18.7322 55.121 18.8832C55.5066 19.0343 55.8379 19.2979 56.0717 19.6397C56.3055 19.9816 56.4311 20.3858 56.4321 20.8C56.445 21.0624 56.4052 21.3247 56.3151 21.5715C56.2249 21.8183 56.0863 22.0446 55.9074 22.2369C55.7284 22.4293 55.5128 22.5839 55.2731 22.6916C55.0335 22.7993 54.7747 22.8579 54.5121 22.864ZM47.0641 17.4C46.392 17.4016 45.7354 17.6023 45.1773 17.9769C44.6192 18.3514 44.1847 18.883 43.9286 19.5044C43.6725 20.1258 43.6063 20.8092 43.7384 21.4682C43.8705 22.1272 44.1949 22.7323 44.6707 23.207C45.1465 23.6817 45.7524 24.0047 46.4117 24.1352C47.071 24.2658 47.7542 24.198 48.375 23.9404C48.9958 23.6828 49.5264 23.247 49.8996 22.6881C50.2729 22.1291 50.4721 21.4721 50.4721 20.8C50.4786 20.3503 50.3946 19.904 50.225 19.4875C50.0554 19.0709 49.8038 18.6928 49.4851 18.3756C49.1663 18.0583 48.787 17.8085 48.3697 17.6409C47.9524 17.4733 47.5057 17.3913 47.0561 17.4H47.0641ZM47.0641 22.864C46.6507 22.8945 46.2378 22.7999 45.879 22.5924C45.5202 22.385 45.2321 22.0743 45.0523 21.7009C44.8726 21.3274 44.8094 20.9085 44.871 20.4986C44.9327 20.0888 45.1163 19.707 45.3979 19.4029C45.6796 19.0989 46.0462 18.8867 46.4502 18.7939C46.8542 18.7012 47.2767 18.7322 47.6627 18.8829C48.0488 19.0337 48.3806 19.2972 48.6148 19.6391C48.8491 19.981 48.9749 20.3855 48.9761 20.8C48.989 21.0624 48.9492 21.3247 48.8591 21.5715C48.7689 21.8183 48.6303 22.0446 48.4514 22.2369C48.2724 22.4293 48.0568 22.5839 47.8171 22.6916C47.5775 22.7993 47.3187 22.8579 47.0561 22.864H47.0641ZM38.1921 18.448V19.888H41.6481C41.5939 20.5662 41.3119 21.2062 40.8481 21.704C40.5023 22.0562 40.0866 22.3321 39.6278 22.5139C39.169 22.6958 38.6772 22.7796 38.1841 22.76C37.1656 22.76 36.1889 22.3554 35.4688 21.6353C34.7486 20.9151 34.3441 19.9384 34.3441 18.92C34.3441 17.9015 34.7486 16.9248 35.4688 16.2047C36.1889 15.4845 37.1656 15.08 38.1841 15.08C39.1583 15.0641 40.0991 15.4352 40.8001 16.112L41.8161 15.096C41.3428 14.6168 40.7783 14.2375 40.1558 13.9805C39.5332 13.7235 38.8655 13.5941 38.1921 13.6C37.4809 13.5723 36.7714 13.6885 36.1062 13.9416C35.4409 14.1946 34.8336 14.5794 34.3207 15.0728C33.8077 15.5662 33.3996 16.1581 33.1209 16.8129C32.8421 17.4678 32.6984 18.1722 32.6984 18.884C32.6984 19.5957 32.8421 20.3001 33.1209 20.955C33.3996 21.6099 33.8077 22.2018 34.3207 22.6952C34.8336 23.1886 35.4409 23.5733 36.1062 23.8264C36.7714 24.0795 37.4809 24.1957 38.1921 24.168C38.8768 24.1989 39.5603 24.0828 40.1964 23.8276C40.8326 23.5723 41.4067 23.1837 41.8801 22.688C42.7182 21.7671 43.1657 20.5566 43.1281 19.312C43.1306 19.0088 43.1039 18.706 43.0481 18.408L38.1921 18.448ZM74.4401 19.568C74.2314 18.9542 73.8413 18.4182 73.3213 18.0311C72.8013 17.6439 72.1759 17.4238 71.5281 17.4C71.0905 17.3991 70.6573 17.488 70.2555 17.6612C69.8536 17.8344 69.4915 18.0881 69.1916 18.4068C68.8917 18.7255 68.6603 19.1023 68.5118 19.5139C68.3632 19.9255 68.3007 20.3632 68.3281 20.8C68.3184 21.2471 68.3988 21.6916 68.5648 22.1069C68.7307 22.5223 68.9786 22.8999 69.2937 23.2172C69.6088 23.5346 69.9847 23.7852 70.3988 23.954C70.813 24.1229 71.2569 24.2065 71.7041 24.2C72.2637 24.203 72.8153 24.0672 73.3095 23.8047C73.8038 23.5422 74.2252 23.1613 74.5361 22.696L73.3761 21.896C73.2029 22.1846 72.9578 22.4233 72.6648 22.5888C72.3717 22.7543 72.0406 22.8408 71.7041 22.84C71.3575 22.8532 71.0151 22.7618 70.7211 22.5778C70.4272 22.3937 70.1955 22.1255 70.0561 21.808L74.6081 19.928L74.4401 19.568ZM69.8001 20.704C69.7839 20.4565 69.8172 20.2083 69.8981 19.9739C69.979 19.7395 70.1059 19.5236 70.2712 19.3389C70.4366 19.1541 70.6372 19.0042 70.8613 18.8979C71.0853 18.7916 71.3284 18.7312 71.5761 18.72C71.8341 18.703 72.0915 18.7621 72.3162 18.8901C72.5409 19.0182 72.7231 19.2093 72.8401 19.44L69.8001 20.704ZM66.1041 24H67.6001V14H66.1041V24ZM63.6561 18.16H63.6001C63.3746 17.9079 63.0984 17.7063 62.7896 17.5684C62.4808 17.4306 62.1463 17.3595 61.8081 17.36C60.9338 17.4024 60.1094 17.7795 59.5056 18.4132C58.9019 19.047 58.5651 19.8887 58.5651 20.764C58.5651 21.6393 58.9019 22.481 59.5056 23.1147C60.1094 23.7484 60.9338 24.1256 61.8081 24.168C62.1471 24.1737 62.4832 24.105 62.7928 23.9668C63.1024 23.8286 63.378 23.6242 63.6001 23.368H63.6481V23.856C63.6481 25.16 62.9521 25.856 61.8321 25.856C61.459 25.8472 61.0971 25.7277 60.7922 25.5126C60.4873 25.2975 60.2533 24.9965 60.1201 24.648L58.8161 25.192C59.0615 25.7891 59.4798 26.2992 60.0171 26.657C60.5545 27.0148 61.1865 27.2038 61.8321 27.2C63.5841 27.2 65.0321 26.168 65.0321 23.656V17.6H63.6561V18.16ZM61.9441 22.864C61.428 22.8185 60.9477 22.5814 60.5979 22.1993C60.248 21.8173 60.054 21.318 60.054 20.8C60.054 20.2819 60.248 19.7827 60.5979 19.4006C60.9477 19.0186 61.428 18.7815 61.9441 18.736C62.1999 18.7491 62.4506 18.8133 62.6812 18.9248C62.9119 19.0363 63.1179 19.1928 63.2871 19.3852C63.4564 19.5775 63.5854 19.8018 63.6666 20.0448C63.7479 20.2878 63.7796 20.5445 63.7601 20.8C63.7819 21.0565 63.7515 21.3148 63.6706 21.5593C63.5897 21.8038 63.4601 22.0293 63.2896 22.2222C63.1191 22.4151 62.9113 22.5715 62.6786 22.6818C62.446 22.7921 62.1934 22.8541 61.9361 22.864H61.9441ZM81.4481 14H77.8721V24H79.3681V20.208H81.4561C81.8824 20.2386 82.3105 20.1811 82.7137 20.039C83.1168 19.8968 83.4864 19.6732 83.7993 19.382C84.1122 19.0907 84.3617 18.7382 84.5324 18.3462C84.703 17.9543 84.7911 17.5314 84.7911 17.104C84.7911 16.6765 84.703 16.2536 84.5324 15.8617C84.3617 15.4698 84.1122 15.1172 83.7993 14.826C83.4864 14.5348 83.1168 14.3111 82.7137 14.169C82.3105 14.0269 81.8824 13.9693 81.4561 14H81.4481ZM81.4481 18.8H79.3601V15.392H81.4801C81.9352 15.392 82.3717 15.5728 82.6935 15.8946C83.0153 16.2164 83.1961 16.6529 83.1961 17.108C83.1961 17.5631 83.0153 17.9996 82.6935 18.3214C82.3717 18.6432 81.9352 18.824 81.4801 18.824L81.4481 18.8ZM90.6721 17.36C90.1274 17.3274 89.5852 17.4547 89.1119 17.7262C88.6386 17.9976 88.255 18.4014 88.0081 18.888L89.3361 19.44C89.467 19.1987 89.6653 19.0006 89.9067 18.8699C90.1482 18.7393 90.4224 18.6816 90.6961 18.704C90.886 18.6818 91.0784 18.6977 91.2621 18.7506C91.4458 18.8036 91.6172 18.8927 91.7661 19.0125C91.915 19.1324 92.0386 19.2808 92.1296 19.449C92.2206 19.6171 92.2772 19.8017 92.2961 19.992V20.096C91.8156 19.8416 91.2798 19.7097 90.7361 19.712C89.3041 19.712 87.8561 20.512 87.8561 21.96C87.8702 22.2687 87.9461 22.5715 88.0793 22.8504C88.2124 23.1293 88.4002 23.3787 88.6314 23.5838C88.8626 23.7889 89.1326 23.9456 89.4254 24.0445C89.7182 24.1435 90.0279 24.1828 90.3361 24.16C90.7128 24.187 91.0899 24.1122 91.4277 23.9433C91.7655 23.7743 92.0517 23.5176 92.2561 23.2H92.3041V24H93.7441V20.152C93.7441 18.4 92.4161 17.384 90.7121 17.384L90.6721 17.36ZM90.4881 22.84C90.0001 22.84 89.3201 22.592 89.3201 21.992C89.3201 21.192 90.1681 20.928 90.9201 20.928C91.3953 20.9163 91.865 21.0323 92.2801 21.264C92.2301 21.6971 92.0252 22.0976 91.7033 22.3916C91.3813 22.6856 90.964 22.8534 90.5281 22.864L90.4881 22.84ZM98.9921 17.6L97.2801 21.936H97.2321L95.4561 17.6H93.8561L96.5201 23.664L95.0001 27.032H96.5601L100.656 17.6H98.9921ZM85.5441 24H87.0401V14H85.5441V24Z" fill="white"/>
<path d="M37.8861 8.24199C37.8997 8.53542 37.8535 8.82856 37.7504 9.1036C37.6472 9.37864 37.4893 9.62986 37.2861 9.84199C37.0592 10.0777 36.7852 10.2629 36.482 10.3856C36.1787 10.5082 35.853 10.5656 35.5261 10.554C35.0301 10.5501 34.5462 10.3999 34.1352 10.1223C33.7242 9.84461 33.4042 9.45182 33.2154 8.99312C33.0267 8.53442 32.9775 8.03021 33.074 7.54366C33.1705 7.05712 33.4085 6.60988 33.7581 6.25799C33.9879 6.02342 34.2633 5.83849 34.5674 5.71464C34.8715 5.5908 35.1978 5.53068 35.5261 5.53799C35.8643 5.53686 36.1992 5.60493 36.5101 5.73799C36.7996 5.85475 37.0573 6.03844 37.2621 6.27399L36.8381 6.69799C36.6784 6.50807 36.4768 6.35788 36.2491 6.2593C36.0214 6.16072 35.7738 6.11645 35.5261 6.12999C35.2762 6.12877 35.0286 6.17801 34.7983 6.27478C34.5679 6.37155 34.3594 6.51385 34.1853 6.69314C34.0113 6.87244 33.8752 7.08503 33.7853 7.31819C33.6954 7.55134 33.6535 7.80025 33.6621 8.04999C33.6568 8.4229 33.7622 8.78901 33.9648 9.10213C34.1673 9.41525 34.4581 9.66135 34.8004 9.8094C35.1427 9.95744 35.5212 10.0008 35.8881 9.93398C36.255 9.86717 36.5939 9.69319 36.8621 9.43399C37.1083 9.16722 37.2502 8.82079 37.2621 8.45799H35.5261V7.88199H37.8541C37.8754 8.0008 37.8861 8.12128 37.8861 8.24199ZM41.5501 6.24199H39.3901V7.76199H41.3581V8.33799H39.3901V9.85799H41.5501V10.45H38.7501V5.64999H41.5501V6.24199ZM44.1741 10.45H43.5581V6.24199H42.2141V5.64999H45.5501V6.24199H44.1741V10.45ZM47.9021 10.45V5.64999H48.5181V10.45H47.9021ZM51.2541 10.45H50.6381V6.24199H49.2941V5.64999H52.5901V6.24199H51.2541V10.45ZM58.8381 9.82599C58.3704 10.2911 57.7377 10.5521 57.0781 10.5521C56.4185 10.5521 55.7858 10.2911 55.3181 9.82599C54.8635 9.34481 54.6103 8.70794 54.6103 8.04599C54.6103 7.38404 54.8635 6.74717 55.3181 6.26599C55.5486 6.03379 55.8228 5.84949 56.1249 5.72373C56.4269 5.59796 56.7509 5.53322 57.0781 5.53322C57.4053 5.53322 57.7293 5.59796 58.0313 5.72373C58.3334 5.84949 58.6076 6.03379 58.8381 6.26599C59.2945 6.74625 59.549 7.38347 59.549 8.04599C59.549 8.70851 59.2945 9.34573 58.8381 9.82599ZM55.7741 9.42599C56.1204 9.77089 56.5893 9.96453 57.0781 9.96453C57.5669 9.96453 58.0358 9.77089 58.3821 9.42599C58.7239 9.04921 58.9132 8.5587 58.9132 8.04999C58.9132 7.54128 58.7239 7.05078 58.3821 6.67399C58.0358 6.32909 57.5669 6.13545 57.0781 6.13545C56.5893 6.13545 56.1204 6.32909 55.7741 6.67399C55.4323 7.05078 55.243 7.54128 55.243 8.04999C55.243 8.5587 55.4323 9.04921 55.7741 9.42599ZM60.4141 10.45V5.64999H61.1661L63.5021 9.38599V5.64999H64.1181V10.45H63.4781L61.0381 6.53799V10.45H60.4141Z" fill="white"/>
<path fill-rule="evenodd" clip-rule="evenodd" d="M57.0781 5.61322C56.7615 5.61322 56.4479 5.67587 56.1556 5.79758C55.8636 5.91916 55.5985 6.09727 55.3756 6.32165C54.9354 6.78789 54.6903 7.4048 54.6903 8.04599C54.6903 8.6871 54.9354 9.30393 55.3754 9.77015C55.828 10.2198 56.4401 10.4721 57.0781 10.4721C57.7162 10.4721 58.3283 10.2197 58.7809 9.77005C59.2227 9.30476 59.469 8.68762 59.469 8.04599C59.469 7.40428 59.2226 6.78707 58.7807 6.32175C58.5578 6.09732 58.2926 5.91918 58.0006 5.79758C57.7083 5.67587 57.3947 5.61322 57.0781 5.61322ZM56.0941 5.64987C56.4059 5.52005 56.7403 5.45322 57.0781 5.45322C57.4159 5.45322 57.7503 5.52005 58.0621 5.64987C58.3739 5.77969 58.6569 5.96993 58.8949 6.20963L58.8961 6.21087C59.3666 6.706 59.629 7.36296 59.629 8.04599C59.629 8.72903 59.3666 9.38597 58.8961 9.8811L58.8945 9.88274C58.4119 10.3627 57.7588 10.6321 57.0781 10.6321C56.3974 10.6321 55.7444 10.3627 55.2617 9.88272L55.2599 9.88096C54.7913 9.38492 54.5303 8.72837 54.5303 8.04599C54.5303 7.36361 54.7913 6.70709 55.2599 6.21105L55.2613 6.20961C55.4993 5.96992 55.7823 5.77969 56.0941 5.64987ZM35.5243 5.61797C35.207 5.6109 34.8916 5.66902 34.5976 5.78874C34.3036 5.90845 34.0373 6.08722 33.8152 6.31397L33.8148 6.31438C33.4763 6.65509 33.2459 7.08813 33.1525 7.55923C33.059 8.03033 33.1066 8.51854 33.2894 8.96268C33.4722 9.40682 33.782 9.78713 34.18 10.056C34.578 10.3248 35.0464 10.4702 35.5267 10.474L35.5289 10.474C35.8446 10.4852 36.1591 10.4299 36.452 10.3114C36.7448 10.1929 37.0093 10.0141 37.2284 9.78659C37.424 9.5823 37.5761 9.34037 37.6755 9.07551C37.7748 8.81062 37.8193 8.5283 37.8062 8.24569L37.8861 8.24199L37.8061 8.24196C37.8061 8.14825 37.7994 8.05468 37.786 7.96199H35.6061V8.37799H37.3447L37.342 8.4606C37.3296 8.8426 37.1801 9.20736 36.9209 9.48824L36.9178 9.4916C36.6383 9.76179 36.2849 9.94305 35.9025 10.0127C35.52 10.0823 35.1255 10.0371 34.7687 9.88282C34.4119 9.72851 34.1088 9.47197 33.8976 9.14558C33.6868 8.81974 33.577 8.43885 33.5821 8.05081C33.5734 7.79096 33.6171 7.532 33.7106 7.2894C33.8044 7.0462 33.9464 6.82444 34.1279 6.63742C34.3095 6.4504 34.5269 6.30196 34.7673 6.20102C35.0069 6.10039 35.2643 6.04903 35.5241 6.04998C35.7835 6.03618 36.0425 6.08269 36.2808 6.18588C36.4933 6.27785 36.6841 6.41258 36.8416 6.58135L37.1517 6.27122C36.9639 6.07164 36.7349 5.91492 36.4802 5.81218L36.4786 5.81156C36.1777 5.68278 35.8537 5.6169 35.5264 5.61799L35.5243 5.61797ZM37.9661 8.24015C37.9799 8.54379 37.932 8.84708 37.8253 9.13169C37.7183 9.41688 37.5545 9.67736 37.3439 9.89733C37.1092 10.1411 36.8256 10.3328 36.512 10.4597C36.1986 10.5865 35.8621 10.6458 35.5244 10.634C35.013 10.6298 34.5142 10.4748 34.0904 10.1886C33.6663 9.90209 33.3362 9.49683 33.1415 9.02357C32.9467 8.5503 32.8959 8.03008 32.9955 7.52809C33.0951 7.02619 33.3405 6.56484 33.7011 6.20181C33.9385 5.95951 34.2231 5.76849 34.5372 5.64055C34.8512 5.51271 35.188 5.45058 35.5268 5.45799C35.8753 5.45697 36.2204 5.52711 36.5408 5.66411C36.8417 5.78562 37.1095 5.97662 37.3225 6.2215L37.3714 6.2778L36.833 6.81623L36.7769 6.74947C36.6252 6.56904 36.4336 6.42637 36.2173 6.33272C36.001 6.23907 35.7658 6.19701 35.5305 6.20987L35.5257 6.21013C35.2866 6.20896 35.0497 6.25594 34.8292 6.34854C34.6088 6.44114 34.4093 6.5773 34.2427 6.74887C34.0762 6.92043 33.946 7.12387 33.8599 7.34697C33.7739 7.57008 33.7338 7.80826 33.742 8.04723L33.7422 8.05112C33.7372 8.40822 33.8379 8.75882 34.0319 9.05867C34.2259 9.35852 34.5044 9.5942 34.8322 9.73597C35.16 9.87774 35.5224 9.91926 35.8738 9.85528C36.2244 9.79143 36.5483 9.6254 36.8048 9.37806C37.0183 9.14599 37.1487 8.85054 37.177 8.53799H35.4461V7.80199H37.921L37.9328 7.86785C37.9549 7.99073 37.966 8.11532 37.9661 8.24015ZM38.6701 5.56999H41.6301V6.32199H39.4701V7.68199H41.4381V8.41799H39.4701V9.77799H41.6301V10.53H38.6701V5.56999ZM38.8301 5.72999V10.37H41.4701V9.93799H39.3101V8.25799H41.2781V7.84199H39.3101V6.16199H41.4701V5.72999H38.8301ZM42.1341 5.56999H45.6301V6.32199H44.2541V10.53H43.4781V6.32199H42.1341V5.56999ZM42.2941 5.72999V6.16199H43.6381V10.37H44.0941V6.16199H45.4701V5.72999H42.2941ZM47.8221 5.56999H48.5981V10.53H47.8221V5.56999ZM47.9821 5.72999V10.37H48.4381V5.72999H47.9821ZM49.2141 5.56999H52.6701V6.32199H51.3341V10.53H50.5581V6.32199H49.2141V5.56999ZM49.3741 5.72999V6.16199H50.7181V10.37H51.1741V6.16199H52.5101V5.72999H49.3741ZM60.3341 5.56999H61.2104L63.4221 9.10715V5.56999H64.1981V10.53H63.4337L61.1181 6.81742V10.53H60.3341V5.56999ZM60.4941 5.72999V10.37H60.9581V6.25856L63.5225 10.37H64.0381V5.72999H63.5821V9.66483L61.1218 5.72999H60.4941ZM55.7176 6.6173C56.079 6.25748 56.5682 6.05545 57.0781 6.05545C57.588 6.05545 58.0772 6.25748 58.4385 6.6173L58.4414 6.62017C58.7966 7.01168 58.9932 7.52141 58.9932 8.04999C58.9932 8.57857 58.7965 9.08824 58.4414 9.47974L58.4386 9.48275C58.0773 9.84258 57.588 10.0445 57.0781 10.0445C56.5682 10.0445 56.079 9.84251 55.7176 9.48268L55.7741 9.42599L55.7148 9.47974C55.3597 9.08824 55.163 8.57857 55.163 8.04999C55.163 7.52141 55.3597 7.01174 55.7148 6.62024L55.7176 6.6173ZM55.832 9.37074C56.1632 9.69981 56.6112 9.88453 57.0781 9.88453C57.545 9.88453 57.993 9.69981 58.3242 9.37074C58.6518 9.00887 58.8332 8.53816 58.8332 8.04999C58.8332 7.56182 58.6518 7.09111 58.3242 6.72924C57.993 6.40017 57.545 6.21545 57.0781 6.21545C56.6112 6.21545 56.1632 6.40017 55.832 6.72924C55.5044 7.09111 55.323 7.56182 55.323 8.04999C55.323 8.53816 55.5044 9.00887 55.832 9.37074Z" fill="white"/>
<path d="M8.35193 6.03198C8.09118 6.34487 7.95957 6.74542 7.98393 7.15198V24.848C7.95957 25.2546 8.09118 25.6551 8.35193 25.968L8.40793 26.024L18.3199 16.12V15.888L8.40793 5.97598L8.35193 6.03198Z" fill="url(#paint0_linear_246_42)"/>
<path d="M21.5999 19.424L18.3199 16.12V15.888L21.5999 12.576L21.6719 12.616L25.5999 14.848C26.7199 15.48 26.7199 16.52 25.5999 17.16L21.6879 19.384L21.5999 19.424Z" fill="url(#paint1_linear_246_42)"/>
<path d="M21.696 19.376L18.32 16L8.35195 25.968C8.58024 26.1687 8.87146 26.2833 9.17529 26.2921C9.47913 26.3008 9.77647 26.2032 10.016 26.016L21.704 19.376" fill="url(#paint2_linear_246_42)"/>
<path d="M21.6959 12.624L10.0079 5.98398C9.76847 5.79679 9.47112 5.69915 9.16729 5.70791C8.86346 5.71667 8.57224 5.8313 8.34395 6.03198L18.3199 16L21.6959 12.624Z" fill="url(#paint3_linear_246_42)"/>
<path opacity="0.2" d="M21.6 19.304L10.008 25.904C9.77698 26.0767 9.49634 26.17 9.20795 26.17C8.91956 26.17 8.63892 26.0767 8.40795 25.904L8.35195 25.96L8.40795 26.016C8.6384 26.1899 8.91924 26.284 9.20795 26.284C9.49666 26.284 9.77751 26.1899 10.008 26.016L21.696 19.376L21.6 19.304Z" fill="black"/>
<path opacity="0.12" d="M8.35193 25.856C8.09118 25.5431 7.95957 25.1426 7.98393 24.736V24.856C7.95957 25.2626 8.09118 25.6631 8.35193 25.976L8.40793 25.92L8.35193 25.856ZM25.5999 17.04L21.5999 19.304L21.6719 19.376L25.5999 17.152C25.8228 17.0473 26.0141 16.8857 26.1546 16.6834C26.2951 16.4811 26.3797 16.2454 26.3999 16C26.3549 16.223 26.2594 16.4326 26.1208 16.6129C25.9821 16.7932 25.8039 16.9393 25.5999 17.04Z" fill="black"/>
<path opacity="0.25" d="M10.0079 6.09568L25.5999 14.9597C25.8039 15.0604 25.9821 15.2064 26.1207 15.3867C26.2594 15.567 26.3549 15.7767 26.3999 15.9997C26.3797 15.7543 26.295 15.5185 26.1546 15.3163C26.0141 15.114 25.8228 14.9524 25.5999 14.8477L10.0079 5.98368C8.88792 5.35168 7.97592 5.87968 7.97592 7.15968V7.27968C7.99992 5.99168 8.89592 5.46368 10.0079 6.09568Z" fill="white"/>
<defs>
<linearGradient id="paint0_linear_246_42" x1="17.4399" y1="6.96798" x2="4.01593" y2="20.392" gradientUnits="userSpaceOnUse">
<stop stop-color="#00A0FF"/>
<stop offset="0.01" stop-color="#00A1FF"/>
<stop offset="0.26" stop-color="#00BEFF"/>
<stop offset="0.51" stop-color="#00D2FF"/>
<stop offset="0.76" stop-color="#00DFFF"/>
<stop offset="1" stop-color="#00E3FF"/>
</linearGradient>
<linearGradient id="paint1_linear_246_42" x1="27.0639" y1="16" x2="7.71192" y2="16" gradientUnits="userSpaceOnUse">
<stop stop-color="#FFE000"/>
<stop offset="0.41" stop-color="#FFBD00"/>
<stop offset="0.78" stop-color="#FFA500"/>
<stop offset="1" stop-color="#FF9C00"/>
</linearGradient>
<linearGradient id="paint2_linear_246_42" x1="19.864" y1="17.84" x2="1.65596" y2="36.04" gradientUnits="userSpaceOnUse">
<stop stop-color="#FF3A44"/>
<stop offset="1" stop-color="#C31162"/>
</linearGradient>
<linearGradient id="paint3_linear_246_42" x1="5.83995" y1="0.143984" x2="13.9679" y2="8.27198" gradientUnits="userSpaceOnUse">
<stop stop-color="#32A071"/>
<stop offset="0.07" stop-color="#2DA771"/>
<stop offset="0.48" stop-color="#15CF74"/>
<stop offset="0.8" stop-color="#06E775"/>
<stop offset="1" stop-color="#00F076"/>
</linearGradient>
</defs>
</svg>
